<svg width="344" height="46" viewBox="0 0 344 46" fill="none" xmlns="http://www.w3.org/2000/svg">
<path d="M154.702 7.62957C151.344 7.57407 148.716 8.48757 147.991 10.8621C146.491 15.7686 156.193 21.0338 160.765 23.5435C161.747 24.0799 162.168 23.7452 161.546 23.0271C158.657 19.7031 154.547 13.1575 160.347 9.31596C160.629 9.13002 160.973 8.91863 161.282 8.73896L161.374 8.68803L161.282 8.67171C158.995 8.04514 156.716 7.66257 154.702 7.62928V7.62957ZM185.898 22.1663C185.395 22.0677 185.272 22.3896 185.742 22.9282C188.627 26.2517 192.744 32.7957 186.938 36.6393V36.6361C186.661 36.822 186.324 37.0345 186.01 37.2163L185.914 37.2704L186.01 37.2835C192.103 38.9544 198.134 38.8916 199.294 35.0902C200.794 30.1837 191.098 24.9196 186.52 22.412C186.276 22.2778 186.066 22.1994 185.898 22.1665L185.898 22.1663Z" fill="#F67200"/>
<path d="M308.165 1.30798C306.32 1.30798 304.826 2.80244 304.826 4.64252C304.826 6.48311 306.32 7.97705 308.165 7.97705C310.005 7.97705 311.495 6.48311 311.495 4.64252C311.495 2.80244 310.005 1.30798 308.165 1.30798ZM239.479 4.44806V10.8238H234.347V15.1211H239.479V28.6473C239.479 31.7446 240.089 37.3917 247.928 37.3917C249.893 37.3917 251.151 37.2564 252.881 37.0219V32.5429C252.881 32.5429 251.095 32.9988 249.507 32.9988C245.363 32.9988 244.458 31.3001 244.458 28.0639V15.1211H252.652V10.8238H244.458V4.44806H239.479ZM268.277 10.2851C260.041 10.2851 253.876 15.6385 253.876 23.9771V24.1875C253.876 32.3202 260.075 37.5702 269.068 37.5702C273.39 37.5702 277.429 36.4904 281.134 32.9382L277.479 29.7312C277.479 29.7312 274.345 33.002 269.062 33.002C264.155 33.002 259.399 29.8955 259.174 25.7782L281.97 25.6826C282.084 24.6521 282.084 23.518 282.084 23.518C282.084 16.2611 276.46 10.2851 268.277 10.2851L268.277 10.2851ZM328.275 10.4476C322.647 10.4476 314.535 13.851 314.535 23.875C314.535 33.8045 321.832 37.516 328.218 37.516C334.582 37.516 337.773 33.9806 337.773 33.9806L338.032 37.5096H342.698V10.8015H338.041L337.773 14.1137C337.773 14.1137 334.676 10.4476 328.275 10.4476V10.4476ZM218.935 10.4667C213.558 10.4667 207.785 12.5 207.785 17.9455C207.785 22.6603 212.075 24.127 219.155 25.4594C223.885 26.3468 228.249 26.7982 228.249 29.3486C228.249 30.9562 226.101 33.0179 220.734 33.0179C216.925 33.0179 213.078 32.2182 211.902 29.5048L207.316 31.4303C209.197 35.6186 214.187 37.7869 219.972 37.7869C231.526 37.7869 233.757 32.2973 233.757 29.1796C233.757 23.9874 228.587 22.4968 223.429 21.5765C218.298 20.6604 213.252 20.021 213.252 17.6299C213.252 16.0729 214.804 14.6971 219.293 14.6971C222.632 14.6971 226.483 15.4727 227.528 17.8371L232.258 15.8479C230.45 12.2142 225.091 10.4667 218.935 10.4667V10.4667ZM300.07 10.7728C295.985 10.7352 292.98 11.9712 290.565 14.4867L290.297 10.811H285.465V37.4937H290.565V23.6646C290.565 19.8089 293.673 14.9202 301.888 15.3793V10.8652C301.259 10.8078 300.654 10.7782 300.07 10.7728V10.7728ZM305.61 10.7951V37.4554H310.71V10.7951H305.61ZM328.489 14.9043C333.432 14.9043 337.773 17.7064 337.773 23.8272C337.773 29.9439 333.953 33.002 328.54 33.002C325.702 33.002 319.721 31.1935 319.721 23.9324C319.721 16.5549 325.688 14.9043 328.489 14.9043ZM268.344 15.0445C272.828 15.0445 276.48 18.066 276.48 21.6913H259.257C259.576 18.0064 263.542 15.0445 268.344 15.0445V15.0445Z" fill="#231F20"/>
<path d="M44.6764 10.4445C37.8568 10.4445 29.7814 13.8521 29.7814 23.8782C29.7814 33.8056 37.0468 37.6626 44.6764 37.6626C52.3111 37.6626 59.5746 33.8056 59.5746 23.8782C59.5746 13.8521 51.5011 10.4445 44.6764 10.4445V10.4445ZM76.7182 10.4477C70.3167 10.4477 67.2198 14.1138 67.2198 14.1138L66.9519 10.8016H62.2952V44.692H67.2198V33.4579C67.2198 33.4579 70.3866 37.5161 76.7724 37.5161C83.1634 37.5161 90.4586 34.4371 90.4586 23.8751C90.4586 13.3168 82.3463 10.4477 76.7182 10.4477V10.4477ZM123.381 10.4477C117.747 10.4477 109.64 13.8511 109.64 23.8751C109.64 33.8046 116.938 37.5161 123.323 37.5161C129.688 37.5161 132.879 33.9807 132.879 33.9807L133.15 37.5097H137.797V10.8016H133.141L132.879 14.1138C132.879 14.1138 129.777 10.4477 123.381 10.4477ZM12.9248 10.4668C7.54231 10.4668 1.76787 12.5001 1.76787 17.9456C1.76787 22.6604 6.05881 24.1271 13.1449 25.4595C17.8741 26.3469 22.235 26.7983 22.235 29.3487C22.235 30.9563 20.0873 33.0179 14.7205 33.0179C10.9109 33.0179 7.0613 32.2182 5.88552 29.5049L1.30219 31.4304C3.17822 35.6187 8.17333 37.787 13.9582 37.787C25.507 37.787 27.7401 32.2974 27.7401 29.1797C27.7401 23.9875 22.5713 22.4969 17.4188 21.5766C12.2819 20.6605 7.23788 20.0211 7.23788 17.63C7.23788 16.073 8.78676 14.6972 13.2756 14.6972C16.6201 14.6972 20.469 15.4728 21.5141 17.8372L26.2506 15.848C24.4372 12.2143 19.0806 10.4668 12.9248 10.4668ZM108.192 10.7729C104.106 10.7353 101.097 11.9713 98.6875 14.4867L98.4228 10.8111H93.5811V37.4937H98.6875V23.6647C98.6875 19.809 101.799 14.9203 110.014 15.3794V10.8653C109.384 10.8079 108.776 10.7783 108.192 10.7729V10.7729ZM123.594 14.9044C128.538 14.9044 132.879 17.7064 132.879 23.8273C132.879 29.944 129.059 33.002 123.645 33.002C120.803 33.002 114.826 31.1935 114.826 23.9325C114.826 16.5549 120.788 14.9044 123.594 14.9044V14.9044ZM76.5045 14.9076C79.3055 14.9076 85.2788 16.0081 85.2788 23.9325C85.2788 31.8548 79.291 33.0021 76.4535 33.0021C71.0397 33.0021 67.2198 29.944 67.2198 23.8273C67.2198 17.7065 71.561 14.9076 76.5045 14.9076V14.9076ZM44.6764 15.0575C48.2664 15.0575 54.3852 16.5529 54.3852 23.9325C54.3852 31.1936 48.8674 33.0021 44.6764 33.0021C40.4906 33.0021 34.9611 31.1936 34.9611 23.9325C34.9611 16.5529 41.0915 15.0575 44.6764 15.0575Z" fill="#231F20"/>
<path d="M182.588 3.8678C169.043 3.8678 161.371 8.68789 161.371 8.68789C170.364 10.3791 188.151 19.4183 193.863 19.4183C196.083 19.4183 197.151 17.2605 197.151 14.6939C197.151 11.6985 196.085 8.43937 194.114 6.50737C192.249 4.66886 187.834 3.8678 182.588 3.8678V3.8678ZM153.426 26.5337C151.205 26.5337 150.141 28.6926 150.141 31.2613C150.141 34.2567 151.206 37.5137 153.171 39.4478C155.042 41.2842 159.457 42.0906 164.704 42.0906C178.244 42.0906 185.921 37.2673 185.921 37.2673C176.927 35.5761 159.138 26.5337 153.426 26.5337V26.5337Z" fill="#DE1823"/>
</svg>
