<svg width="751" height="195" viewBox="0 0 751 195" fill="none" xmlns="http://www.w3.org/2000/svg">
<rect x="1.5" y="2.5" width="158" height="191" rx="3.5" stroke="#D63341" stroke-width="3"/>
<path d="M29.7027 124V110.72C29.7027 108.064 30.1454 105.74 31.0307 103.748C31.9714 101.701 33.41 99.9023 35.3467 98.353C37.3387 96.8037 39.9117 95.365 43.0657 94.037L52.2787 90.136C54.658 89.14 56.3734 87.9503 57.4247 86.567C58.5314 85.1837 59.0847 83.4407 59.0847 81.338C59.0847 79.4013 58.4207 77.769 57.0927 76.441C55.82 75.0577 53.9387 74.366 51.4487 74.366C48.9034 74.366 46.9944 75.0853 45.7217 76.524C44.449 77.9073 43.8127 79.7887 43.8127 82.168H28.8727C28.8727 78.184 29.7304 74.6427 31.4457 71.544C33.161 68.4453 35.6787 66.0107 38.9987 64.24C42.374 62.4693 46.524 61.584 51.4487 61.584C56.318 61.584 60.4127 62.4417 63.7327 64.157C67.108 65.817 69.6534 68.1133 71.3687 71.046C73.1394 73.9233 74.0247 77.188 74.0247 80.84V81.836C74.0247 86.5393 72.752 90.4127 70.2067 93.456C67.6614 96.4993 63.5667 99.2383 57.9227 101.673L48.7097 105.574C47.3817 106.127 46.3857 106.736 45.7217 107.4C45.113 108.064 44.8087 108.949 44.8087 110.056V113.044L41.2397 110.72H73.8587V124H29.7027ZM105.709 61.584C110.191 61.584 114.065 62.331 117.329 63.825C120.649 65.2637 123.361 67.311 125.463 69.967C127.621 72.623 129.198 75.7217 130.194 79.263C131.246 82.749 131.771 86.5117 131.771 90.551V93.871C131.771 104.108 129.143 111.771 123.886 116.862C118.63 121.953 110.828 124.498 100.48 124.498C98.433 124.498 96.3303 124.443 94.1723 124.332C92.0143 124.221 89.9946 124.055 88.1133 123.834V110.886C89.9393 111.052 91.9866 111.218 94.2553 111.384C96.524 111.495 98.765 111.55 100.978 111.55C105.239 111.55 108.559 110.886 110.938 109.558C113.373 108.23 115.061 106.21 116.001 103.499C116.997 100.788 117.495 97.357 117.495 93.207V86.069L120.815 85.903C120.76 89.9977 119.902 93.4283 118.242 96.195C116.638 98.9063 114.397 100.954 111.519 102.337C108.642 103.72 105.322 104.412 101.559 104.412C97.2986 104.412 93.5913 103.582 90.4373 101.922C87.3386 100.207 84.9316 97.8273 83.2163 94.784C81.501 91.7407 80.6433 88.1163 80.6433 83.911C80.6433 79.3737 81.6946 75.445 83.7973 72.125C85.9553 68.7497 88.9156 66.149 92.6783 64.323C96.441 62.497 100.785 61.584 105.709 61.584ZM106.207 74.366C103.994 74.366 102.085 74.7533 100.48 75.528C98.931 76.3027 97.7136 77.3817 96.8283 78.765C95.9983 80.1483 95.5833 81.753 95.5833 83.579C95.5833 85.4603 95.9983 87.0927 96.8283 88.476C97.6583 89.804 98.848 90.8553 100.397 91.63C101.947 92.4047 103.8 92.792 105.958 92.792C107.895 92.792 109.693 92.46 111.353 91.796C113.013 91.132 114.341 90.136 115.337 88.808C116.333 87.4247 116.831 85.6817 116.831 83.579C116.831 81.753 116.416 80.1483 115.586 78.765C114.756 77.3817 113.539 76.3027 111.934 75.528C110.385 74.7533 108.476 74.366 106.207 74.366Z" fill="#D63341"/>
<line y1="142.5" x2="160" y2="142.5" stroke="#D63341" stroke-width="3"/>
<path d="M31.2168 175.342C29.6968 175.342 28.4998 175.032 27.6258 174.411C26.7518 173.778 26.2831 172.891 26.2198 171.751H29.2598C29.3104 172.068 29.5068 172.34 29.8488 172.568C30.1908 172.796 30.6721 172.91 31.2928 172.91C31.7361 172.91 32.1161 172.847 32.4328 172.72C32.7621 172.581 32.9268 172.359 32.9268 172.055C32.9268 171.789 32.8001 171.574 32.5468 171.409C32.2934 171.232 31.8311 171.111 31.1598 171.048L30.4378 170.972C29.0951 170.833 28.1071 170.465 27.4738 169.87C26.8404 169.275 26.5238 168.527 26.5238 167.628C26.5238 166.855 26.7138 166.222 27.0938 165.728C27.4738 165.221 27.9994 164.841 28.6708 164.588C29.3421 164.335 30.1084 164.208 30.9698 164.208C32.3758 164.208 33.5094 164.518 34.3708 165.139C35.2321 165.747 35.6881 166.627 35.7388 167.78H32.6988C32.6481 167.463 32.4771 167.197 32.1858 166.982C31.8944 166.754 31.4764 166.64 30.9318 166.64C30.5391 166.64 30.2161 166.71 29.9628 166.849C29.7221 166.988 29.6018 167.185 29.6018 167.438C29.6018 167.704 29.7158 167.9 29.9438 168.027C30.1844 168.154 30.5644 168.249 31.0838 168.312L31.8058 168.388C33.1484 168.527 34.1808 168.901 34.9028 169.509C35.6374 170.104 36.0048 170.89 36.0048 171.865C36.0048 172.587 35.8084 173.208 35.4158 173.727C35.0358 174.246 34.4848 174.645 33.7628 174.924C33.0534 175.203 32.2048 175.342 31.2168 175.342ZM42.6457 175.38C41.759 175.38 40.9737 175.228 40.2897 174.924C39.6057 174.62 39.0294 174.208 38.5607 173.689C38.092 173.17 37.731 172.587 37.4777 171.941C37.237 171.295 37.1167 170.63 37.1167 169.946V169.566C37.1167 168.857 37.237 168.179 37.4777 167.533C37.731 166.874 38.0857 166.292 38.5417 165.785C39.0104 165.278 39.5804 164.879 40.2517 164.588C40.923 164.284 41.683 164.132 42.5317 164.132C43.659 164.132 44.6154 164.385 45.4007 164.892C46.186 165.399 46.7877 166.07 47.2057 166.906C47.6237 167.729 47.8327 168.629 47.8327 169.604V170.706H38.5607V168.844H45.8377L44.6407 169.68C44.6407 169.085 44.5584 168.584 44.3937 168.179C44.2417 167.761 44.0074 167.444 43.6907 167.229C43.3867 167.014 43.0004 166.906 42.5317 166.906C42.0757 166.906 41.6767 167.014 41.3347 167.229C41.0054 167.432 40.752 167.748 40.5747 168.179C40.3974 168.597 40.3087 169.129 40.3087 169.775C40.3087 170.358 40.391 170.864 40.5557 171.295C40.7204 171.713 40.9737 172.036 41.3157 172.264C41.6577 172.492 42.101 172.606 42.6457 172.606C43.127 172.606 43.5197 172.524 43.8237 172.359C44.1404 172.194 44.362 171.973 44.4887 171.694H47.6427C47.4907 172.403 47.1867 173.037 46.7307 173.594C46.2874 174.151 45.7174 174.588 45.0207 174.905C44.3367 175.222 43.545 175.38 42.6457 175.38ZM49.6554 178.8V164.512H52.3914V169.034H52.0874C52.1254 168.008 52.328 167.134 52.6954 166.412C53.0754 165.69 53.5884 165.145 54.2344 164.778C54.8804 164.398 55.6214 164.208 56.4574 164.208C57.1794 164.208 57.8317 164.341 58.4144 164.607C58.997 164.86 59.4974 165.228 59.9154 165.709C60.3334 166.178 60.65 166.735 60.8654 167.381C61.0934 168.027 61.2074 168.736 61.2074 169.509V169.965C61.2074 170.738 61.106 171.453 60.9034 172.112C60.7007 172.758 60.3967 173.328 59.9914 173.822C59.586 174.303 59.0857 174.677 58.4904 174.943C57.9077 175.209 57.2364 175.342 56.4764 175.342C55.6657 175.342 54.95 175.184 54.3294 174.867C53.7087 174.538 53.2147 174.05 52.8474 173.404C52.4927 172.745 52.3027 171.922 52.2774 170.934L53.1134 171.96V178.8H49.6554ZM55.4314 172.492C55.8874 172.492 56.2864 172.378 56.6284 172.15C56.983 171.909 57.2554 171.58 57.4454 171.162C57.648 170.744 57.7494 170.269 57.7494 169.737C57.7494 169.192 57.648 168.724 57.4454 168.331C57.2554 167.926 56.9894 167.615 56.6474 167.4C56.3054 167.172 55.9 167.058 55.4314 167.058C55.0134 167.058 54.6207 167.153 54.2534 167.343C53.8987 167.533 53.6074 167.812 53.3794 168.179C53.1514 168.546 53.0374 168.99 53.0374 169.509V170.155C53.0374 170.649 53.1577 171.073 53.3984 171.428C53.639 171.77 53.943 172.036 54.3104 172.226C54.6777 172.403 55.0514 172.492 55.4314 172.492ZM68.1045 175.152C66.9645 175.152 66.0525 175.013 65.3685 174.734C64.6972 174.455 64.2095 173.993 63.9055 173.347C63.6015 172.701 63.4495 171.827 63.4495 170.725L63.4685 161.776H66.6605L66.6415 170.82C66.6415 171.289 66.7618 171.65 67.0025 171.903C67.2558 172.144 67.6168 172.264 68.0855 172.264H69.5295V175.152H68.1045ZM61.9295 167.02V164.512H69.5295V167.02H61.9295ZM76.2668 175.38C75.3801 175.38 74.5948 175.228 73.9108 174.924C73.2268 174.62 72.6505 174.208 72.1818 173.689C71.7131 173.17 71.3521 172.587 71.0988 171.941C70.8581 171.295 70.7378 170.63 70.7378 169.946V169.566C70.7378 168.857 70.8581 168.179 71.0988 167.533C71.3521 166.874 71.7068 166.292 72.1628 165.785C72.6315 165.278 73.2015 164.879 73.8728 164.588C74.5441 164.284 75.3041 164.132 76.1528 164.132C77.2801 164.132 78.2365 164.385 79.0218 164.892C79.8071 165.399 80.4088 166.07 80.8268 166.906C81.2448 167.729 81.4538 168.629 81.4538 169.604V170.706H72.1818V168.844H79.4588L78.2618 169.68C78.2618 169.085 78.1795 168.584 78.0148 168.179C77.8628 167.761 77.6285 167.444 77.3118 167.229C77.0078 167.014 76.6215 166.906 76.1528 166.906C75.6968 166.906 75.2978 167.014 74.9558 167.229C74.6265 167.432 74.3731 167.748 74.1958 168.179C74.0185 168.597 73.9298 169.129 73.9298 169.775C73.9298 170.358 74.0121 170.864 74.1768 171.295C74.3415 171.713 74.5948 172.036 74.9368 172.264C75.2788 172.492 75.7221 172.606 76.2668 172.606C76.7481 172.606 77.1408 172.524 77.4448 172.359C77.7615 172.194 77.9831 171.973 78.1098 171.694H81.2638C81.1118 172.403 80.8078 173.037 80.3518 173.594C79.9085 174.151 79.3385 174.588 78.6418 174.905C77.9578 175.222 77.1661 175.38 76.2668 175.38ZM83.2765 175V164.512H86.0125V169.034H85.8605C85.8605 167.945 85.9935 167.045 86.2595 166.336C86.5381 165.614 86.9435 165.076 87.4755 164.721C88.0075 164.354 88.6598 164.17 89.4325 164.17H89.5845C90.3698 164.17 91.0221 164.354 91.5415 164.721C92.0735 165.076 92.4725 165.614 92.7385 166.336C93.0171 167.045 93.1565 167.945 93.1565 169.034H92.3585C92.3585 167.945 92.4915 167.045 92.7575 166.336C93.0361 165.614 93.4415 165.076 93.9735 164.721C94.5055 164.354 95.1578 164.17 95.9305 164.17H96.0825C96.8678 164.17 97.5265 164.354 98.0585 164.721C98.6031 165.076 99.0148 165.614 99.2935 166.336C99.5848 167.045 99.7305 167.945 99.7305 169.034V175H96.2725V168.939C96.2725 168.458 96.1395 168.059 95.8735 167.742C95.6201 167.413 95.2528 167.248 94.7715 167.248C94.2901 167.248 93.9101 167.413 93.6315 167.742C93.3655 168.059 93.2325 168.47 93.2325 168.977V175H89.7745V168.939C89.7745 168.458 89.6415 168.059 89.3755 167.742C89.1221 167.413 88.7548 167.248 88.2735 167.248C87.7921 167.248 87.4121 167.413 87.1335 167.742C86.8675 168.059 86.7345 168.47 86.7345 168.977V175H83.2765ZM108.818 175.342C107.956 175.342 107.203 175.165 106.557 174.81C105.923 174.455 105.423 173.936 105.056 173.252C104.701 172.568 104.511 171.732 104.486 170.744H104.79V175H102.054V161.13H105.512V168.274L104.752 169.034C104.79 168.008 104.986 167.134 105.341 166.412C105.695 165.69 106.183 165.145 106.804 164.778C107.437 164.398 108.165 164.208 108.989 164.208C109.698 164.208 110.338 164.341 110.908 164.607C111.478 164.86 111.959 165.228 112.352 165.709C112.757 166.178 113.067 166.735 113.283 167.381C113.498 168.027 113.606 168.736 113.606 169.509V169.965C113.606 170.738 113.498 171.453 113.283 172.112C113.067 172.758 112.751 173.328 112.333 173.822C111.915 174.303 111.408 174.677 110.813 174.943C110.23 175.209 109.565 175.342 108.818 175.342ZM107.83 172.492C108.286 172.492 108.685 172.378 109.027 172.15C109.381 171.909 109.654 171.58 109.844 171.162C110.046 170.744 110.148 170.269 110.148 169.737C110.148 169.192 110.046 168.724 109.844 168.331C109.654 167.926 109.388 167.615 109.046 167.4C108.704 167.172 108.298 167.058 107.83 167.058C107.412 167.058 107.019 167.153 106.652 167.343C106.297 167.533 106.006 167.812 105.778 168.179C105.55 168.546 105.436 168.99 105.436 169.509V170.155C105.436 170.649 105.556 171.073 105.797 171.428C106.037 171.77 106.341 172.036 106.709 172.226C107.076 172.403 107.45 172.492 107.83 172.492ZM115.506 175V164.512H118.242V169.072H118.204C118.204 167.603 118.508 166.45 119.116 165.614C119.737 164.778 120.623 164.36 121.776 164.36H122.194V167.324H121.396C120.623 167.324 120.022 167.533 119.591 167.951C119.173 168.369 118.964 168.971 118.964 169.756V175H115.506ZM128.443 175.38C127.556 175.38 126.771 175.228 126.087 174.924C125.403 174.62 124.826 174.208 124.358 173.689C123.889 173.17 123.528 172.587 123.275 171.941C123.034 171.295 122.914 170.63 122.914 169.946V169.566C122.914 168.857 123.034 168.179 123.275 167.533C123.528 166.874 123.883 166.292 124.339 165.785C124.807 165.278 125.377 164.879 126.049 164.588C126.72 164.284 127.48 164.132 128.329 164.132C129.456 164.132 130.412 164.385 131.198 164.892C131.983 165.399 132.585 166.07 133.003 166.906C133.421 167.729 133.63 168.629 133.63 169.604V170.706H124.358V168.844H131.635L130.438 169.68C130.438 169.085 130.355 168.584 130.191 168.179C130.039 167.761 129.804 167.444 129.488 167.229C129.184 167.014 128.797 166.906 128.329 166.906C127.873 166.906 127.474 167.014 127.132 167.229C126.802 167.432 126.549 167.748 126.372 168.179C126.194 168.597 126.106 169.129 126.106 169.775C126.106 170.358 126.188 170.864 126.353 171.295C126.517 171.713 126.771 172.036 127.113 172.264C127.455 172.492 127.898 172.606 128.443 172.606C128.924 172.606 129.317 172.524 129.621 172.359C129.937 172.194 130.159 171.973 130.286 171.694H133.44C133.288 172.403 132.984 173.037 132.528 173.594C132.084 174.151 131.514 174.588 130.818 174.905C130.134 175.222 129.342 175.38 128.443 175.38Z" fill="#D63341"/>
<path d="M54.7126 35.914V33.026H55.2446C55.7006 33.026 56.049 32.9057 56.2896 32.665C56.5303 32.4243 56.6506 32.076 56.6506 31.62V21.512H59.9946V31.582C59.9946 32.6333 59.8236 33.4757 59.4816 34.109C59.1396 34.7423 58.614 35.1983 57.9046 35.477C57.1953 35.7683 56.2833 35.914 55.1686 35.914H54.7126ZM55.2446 24.02V21.512H59.9946V24.02H55.2446ZM57.9426 20.676C57.322 20.676 56.8596 20.5177 56.5556 20.201C56.2643 19.8717 56.1186 19.4537 56.1186 18.947C56.1186 18.4403 56.2643 18.0287 56.5556 17.712C56.8596 17.3827 57.322 17.218 57.9426 17.218C58.576 17.218 59.0383 17.3827 59.3296 17.712C59.621 18.0287 59.7666 18.4403 59.7666 18.947C59.7666 19.4537 59.621 19.8717 59.3296 20.201C59.0383 20.5177 58.576 20.676 57.9426 20.676ZM67.342 32.38C66.4553 32.38 65.67 32.228 64.986 31.924C64.302 31.62 63.7257 31.2083 63.257 30.689C62.7883 30.1697 62.4273 29.587 62.174 28.941C61.9333 28.295 61.813 27.63 61.813 26.946V26.566C61.813 25.8567 61.9333 25.179 62.174 24.533C62.4273 23.8743 62.782 23.2917 63.238 22.785C63.7067 22.2783 64.2767 21.8793 64.948 21.588C65.6193 21.284 66.3793 21.132 67.228 21.132C68.3553 21.132 69.3117 21.3853 70.097 21.892C70.8823 22.3987 71.484 23.07 71.902 23.906C72.32 24.7293 72.529 25.6287 72.529 26.604V27.706H63.257V25.844H70.534L69.337 26.68C69.337 26.0847 69.2547 25.5843 69.09 25.179C68.938 24.761 68.7037 24.4443 68.387 24.229C68.083 24.0137 67.6967 23.906 67.228 23.906C66.772 23.906 66.373 24.0137 66.031 24.229C65.7017 24.4317 65.4483 24.7483 65.271 25.179C65.0937 25.597 65.005 26.129 65.005 26.775C65.005 27.3577 65.0873 27.8643 65.252 28.295C65.4167 28.713 65.67 29.036 66.012 29.264C66.354 29.492 66.7973 29.606 67.342 29.606C67.8233 29.606 68.216 29.5237 68.52 29.359C68.8367 29.1943 69.0583 28.9727 69.185 28.694H72.339C72.187 29.4033 71.883 30.0367 71.427 30.594C70.9837 31.1513 70.4137 31.5883 69.717 31.905C69.033 32.2217 68.2413 32.38 67.342 32.38ZM77.8667 32.342C76.676 32.342 75.7513 31.9557 75.0927 31.183C74.4467 30.3977 74.1237 29.2007 74.1237 27.592V21.512H77.5817V27.687C77.5817 28.1557 77.721 28.5357 77.9997 28.827C78.2783 29.1183 78.652 29.264 79.1207 29.264C79.5893 29.264 79.9693 29.1183 80.2607 28.827C80.552 28.5357 80.6977 28.143 80.6977 27.649V21.512H84.1557V32H81.4197V27.592H81.6097C81.6097 28.6687 81.4703 29.5617 81.1917 30.271C80.9257 30.9677 80.5267 31.487 79.9947 31.829C79.4627 32.171 78.804 32.342 78.0187 32.342H77.8667ZM91.0221 32.342C90.2874 32.342 89.6161 32.209 89.0081 31.943C88.4127 31.677 87.8934 31.3097 87.4501 30.841C87.0194 30.3597 86.6837 29.796 86.4431 29.15C86.2151 28.504 86.1011 27.801 86.1011 27.041V26.585C86.1011 25.825 86.2087 25.122 86.4241 24.476C86.6521 23.8173 86.9751 23.2473 87.3931 22.766C87.8111 22.272 88.3177 21.892 88.9131 21.626C89.5084 21.3473 90.1734 21.208 90.9081 21.208C91.7567 21.208 92.4787 21.398 93.0741 21.778C93.6821 22.1453 94.1444 22.6837 94.4611 23.393C94.7904 24.1023 94.9677 24.9637 94.9931 25.977L94.1951 25.388V18.13H97.6531V32H94.9171V27.744H95.2971C95.2717 28.6813 95.0817 29.4983 94.7271 30.195C94.3724 30.879 93.8784 31.411 93.2451 31.791C92.6244 32.1583 91.8834 32.342 91.0221 32.342ZM91.9531 29.492C92.3711 29.492 92.7511 29.397 93.0931 29.207C93.4477 29.017 93.7327 28.7383 93.9481 28.371C94.1634 28.0037 94.2711 27.5603 94.2711 27.041V26.395C94.2711 25.8883 94.1571 25.464 93.9291 25.122C93.7137 24.78 93.4287 24.5203 93.0741 24.343C92.7321 24.153 92.3584 24.058 91.9531 24.058C91.4971 24.058 91.0854 24.1783 90.7181 24.419C90.3634 24.647 90.0784 24.97 89.8631 25.388C89.6604 25.7933 89.5591 26.2683 89.5591 26.813C89.5591 27.3577 89.6604 27.8327 89.8631 28.238C90.0784 28.6307 90.3634 28.941 90.7181 29.169C91.0854 29.3843 91.4971 29.492 91.9531 29.492ZM100.655 32V21.512H104.113V32H100.655ZM99.3252 24.02V21.512H104.113V24.02H99.3252ZM102.08 20.676C101.447 20.676 100.978 20.5177 100.674 20.201C100.383 19.8717 100.237 19.4537 100.237 18.947C100.237 18.4403 100.383 18.0287 100.674 17.712C100.978 17.3827 101.441 17.218 102.061 17.218C102.695 17.218 103.157 17.3827 103.448 17.712C103.74 18.0287 103.885 18.4403 103.885 18.947C103.885 19.4537 103.74 19.8717 103.448 20.201C103.157 20.5177 102.701 20.676 102.08 20.676Z" fill="#D63341"/>
<path d="M442.057 32.342C440.537 32.342 439.34 32.0317 438.466 31.411C437.592 30.7777 437.123 29.891 437.06 28.751H440.1C440.151 29.0677 440.347 29.34 440.689 29.568C441.031 29.796 441.512 29.91 442.133 29.91C442.576 29.91 442.956 29.8467 443.273 29.72C443.602 29.5807 443.767 29.359 443.767 29.055C443.767 28.789 443.64 28.5737 443.387 28.409C443.134 28.2317 442.671 28.1113 442 28.048L441.278 27.972C439.935 27.8327 438.947 27.4653 438.314 26.87C437.681 26.2747 437.364 25.5273 437.364 24.628C437.364 23.8553 437.554 23.222 437.934 22.728C438.314 22.2213 438.84 21.8413 439.511 21.588C440.182 21.3347 440.949 21.208 441.81 21.208C443.216 21.208 444.35 21.5183 445.211 22.139C446.072 22.747 446.528 23.6273 446.579 24.78H443.539C443.488 24.4633 443.317 24.1973 443.026 23.982C442.735 23.754 442.317 23.64 441.772 23.64C441.379 23.64 441.056 23.7097 440.803 23.849C440.562 23.9883 440.442 24.1847 440.442 24.438C440.442 24.704 440.556 24.9003 440.784 25.027C441.025 25.1537 441.405 25.2487 441.924 25.312L442.646 25.388C443.989 25.5273 445.021 25.901 445.743 26.509C446.478 27.1043 446.845 27.8897 446.845 28.865C446.845 29.587 446.649 30.2077 446.256 30.727C445.876 31.2463 445.325 31.6453 444.603 31.924C443.894 32.2027 443.045 32.342 442.057 32.342ZM454.911 32V28.922H454.341V25.635C454.341 25.1537 454.227 24.799 453.999 24.571C453.784 24.3303 453.423 24.21 452.916 24.21C452.675 24.21 452.321 24.2163 451.852 24.229C451.383 24.2417 450.889 24.2607 450.37 24.286C449.851 24.3113 449.376 24.3367 448.945 24.362V21.474C449.249 21.4487 449.61 21.4233 450.028 21.398C450.446 21.3727 450.877 21.3537 451.32 21.341C451.776 21.3283 452.194 21.322 452.574 21.322C453.651 21.322 454.563 21.4803 455.31 21.797C456.07 22.1137 456.646 22.5887 457.039 23.222C457.444 23.8553 457.647 24.6597 457.647 25.635V32H454.911ZM451.586 32.266C450.851 32.266 450.199 32.133 449.629 31.867C449.059 31.601 448.609 31.221 448.28 30.727C447.963 30.2203 447.805 29.6187 447.805 28.922C447.805 28.1367 448.014 27.5033 448.432 27.022C448.85 26.528 449.426 26.167 450.161 25.939C450.896 25.711 451.738 25.597 452.688 25.597H454.721V27.383H452.688C452.219 27.383 451.858 27.5033 451.605 27.744C451.352 27.972 451.225 28.2823 451.225 28.675C451.225 29.055 451.352 29.3653 451.605 29.606C451.858 29.834 452.219 29.948 452.688 29.948C452.992 29.948 453.258 29.8973 453.486 29.796C453.727 29.682 453.923 29.492 454.075 29.226C454.227 28.96 454.316 28.5927 454.341 28.124L455.139 28.884C455.076 29.606 454.898 30.2203 454.607 30.727C454.328 31.221 453.936 31.601 453.429 31.867C452.935 32.133 452.321 32.266 451.586 32.266ZM459.958 32V21.512H462.694V26.034H462.542C462.542 24.9447 462.675 24.0453 462.941 23.336C463.219 22.614 463.625 22.0757 464.157 21.721C464.689 21.3537 465.341 21.17 466.114 21.17H466.266C467.051 21.17 467.703 21.3537 468.223 21.721C468.755 22.0757 469.154 22.614 469.42 23.336C469.698 24.0453 469.838 24.9447 469.838 26.034H469.04C469.04 24.9447 469.173 24.0453 469.439 23.336C469.717 22.614 470.123 22.0757 470.655 21.721C471.187 21.3537 471.839 21.17 472.612 21.17H472.764C473.549 21.17 474.208 21.3537 474.74 21.721C475.284 22.0757 475.696 22.614 475.975 23.336C476.266 24.0453 476.412 24.9447 476.412 26.034V32H472.954V25.939C472.954 25.4577 472.821 25.0587 472.555 24.742C472.301 24.4127 471.934 24.248 471.453 24.248C470.971 24.248 470.591 24.4127 470.313 24.742C470.047 25.0587 469.914 25.4703 469.914 25.977V32H466.456V25.939C466.456 25.4577 466.323 25.0587 466.057 24.742C465.803 24.4127 465.436 24.248 464.955 24.248C464.473 24.248 464.093 24.4127 463.815 24.742C463.549 25.0587 463.416 25.4703 463.416 25.977V32H459.958ZM483.656 32.38C482.769 32.38 481.984 32.228 481.3 31.924C480.616 31.62 480.04 31.2083 479.571 30.689C479.102 30.1697 478.741 29.587 478.488 28.941C478.247 28.295 478.127 27.63 478.127 26.946V26.566C478.127 25.8567 478.247 25.179 478.488 24.533C478.741 23.8743 479.096 23.2917 479.552 22.785C480.021 22.2783 480.591 21.8793 481.262 21.588C481.933 21.284 482.693 21.132 483.542 21.132C484.669 21.132 485.626 21.3853 486.411 21.892C487.196 22.3987 487.798 23.07 488.216 23.906C488.634 24.7293 488.843 25.6287 488.843 26.604V27.706H479.571V25.844H486.848L485.651 26.68C485.651 26.0847 485.569 25.5843 485.404 25.179C485.252 24.761 485.018 24.4443 484.701 24.229C484.397 24.0137 484.011 23.906 483.542 23.906C483.086 23.906 482.687 24.0137 482.345 24.229C482.016 24.4317 481.762 24.7483 481.585 25.179C481.408 25.597 481.319 26.129 481.319 26.775C481.319 27.3577 481.401 27.8643 481.566 28.295C481.731 28.713 481.984 29.036 482.326 29.264C482.668 29.492 483.111 29.606 483.656 29.606C484.137 29.606 484.53 29.5237 484.834 29.359C485.151 29.1943 485.372 28.9727 485.499 28.694H488.653C488.501 29.4033 488.197 30.0367 487.741 30.594C487.298 31.1513 486.728 31.5883 486.031 31.905C485.347 32.2217 484.555 32.38 483.656 32.38ZM494.979 32.342C494.244 32.342 493.573 32.209 492.965 31.943C492.369 31.677 491.85 31.3097 491.407 30.841C490.976 30.3597 490.64 29.796 490.4 29.15C490.172 28.504 490.058 27.801 490.058 27.041V26.585C490.058 25.825 490.165 25.122 490.381 24.476C490.609 23.8173 490.932 23.2473 491.35 22.766C491.768 22.272 492.274 21.892 492.87 21.626C493.465 21.3473 494.13 21.208 494.865 21.208C495.713 21.208 496.435 21.398 497.031 21.778C497.639 22.1453 498.101 22.6837 498.418 23.393C498.747 24.1023 498.924 24.9637 498.95 25.977L498.152 25.388V18.13H501.61V32H498.874V27.744H499.254C499.228 28.6813 499.038 29.4983 498.684 30.195C498.329 30.879 497.835 31.411 497.202 31.791C496.581 32.1583 495.84 32.342 494.979 32.342ZM495.91 29.492C496.328 29.492 496.708 29.397 497.05 29.207C497.404 29.017 497.689 28.7383 497.905 28.371C498.12 28.0037 498.228 27.5603 498.228 27.041V26.395C498.228 25.8883 498.114 25.464 497.886 25.122C497.67 24.78 497.385 24.5203 497.031 24.343C496.689 24.153 496.315 24.058 495.91 24.058C495.454 24.058 495.042 24.1783 494.675 24.419C494.32 24.647 494.035 24.97 493.82 25.388C493.617 25.7933 493.516 26.2683 493.516 26.813C493.516 27.3577 493.617 27.8327 493.82 28.238C494.035 28.6307 494.32 28.941 494.675 29.169C495.042 29.3843 495.454 29.492 495.91 29.492ZM504.612 32V21.512H508.07V32H504.612ZM503.282 24.02V21.512H508.07V24.02H503.282ZM506.037 20.676C505.403 20.676 504.935 20.5177 504.631 20.201C504.339 19.8717 504.194 19.4537 504.194 18.947C504.194 18.4403 504.339 18.0287 504.631 17.712C504.935 17.3827 505.397 17.218 506.018 17.218C506.651 17.218 507.113 17.3827 507.405 17.712C507.696 18.0287 507.842 18.4403 507.842 18.947C507.842 19.4537 507.696 19.8717 507.405 20.201C507.113 20.5177 506.657 20.676 506.037 20.676Z" fill="#D63341"/>
<rect x="394.5" y="2.5" width="158" height="191" rx="3.5" stroke="#D63341" stroke-width="3"/>
<path d="M468.946 117V67.034L472.598 69.856H457.658V56.41H484.384V117H468.946Z" fill="#D63341"/>
<line x1="393" y1="142.5" x2="553" y2="142.5" stroke="#D63341" stroke-width="3"/>
<path d="M439.883 175.38C438.959 175.38 438.135 175.241 437.413 174.962C436.691 174.683 436.077 174.297 435.57 173.803C435.076 173.309 434.696 172.739 434.43 172.093C434.177 171.447 434.05 170.757 434.05 170.022V169.566C434.05 168.806 434.183 168.097 434.449 167.438C434.728 166.779 435.121 166.203 435.627 165.709C436.134 165.215 436.748 164.829 437.47 164.55C438.192 164.271 438.997 164.132 439.883 164.132C440.783 164.132 441.587 164.271 442.296 164.55C443.018 164.829 443.633 165.215 444.139 165.709C444.646 166.203 445.032 166.779 445.298 167.438C445.577 168.097 445.716 168.806 445.716 169.566V170.022C445.716 170.757 445.583 171.447 445.317 172.093C445.064 172.739 444.684 173.309 444.177 173.803C443.683 174.297 443.075 174.683 442.353 174.962C441.631 175.241 440.808 175.38 439.883 175.38ZM439.883 172.492C440.415 172.492 440.852 172.378 441.194 172.15C441.549 171.922 441.815 171.605 441.992 171.2C442.17 170.782 442.258 170.313 442.258 169.794C442.258 169.249 442.163 168.774 441.973 168.369C441.796 167.951 441.53 167.622 441.175 167.381C440.821 167.14 440.39 167.02 439.883 167.02C439.377 167.02 438.946 167.14 438.591 167.381C438.237 167.622 437.964 167.951 437.774 168.369C437.597 168.774 437.508 169.249 437.508 169.794C437.508 170.313 437.597 170.782 437.774 171.2C437.952 171.605 438.218 171.922 438.572 172.15C438.927 172.378 439.364 172.492 439.883 172.492ZM452.397 175.38C451.485 175.38 450.694 175.234 450.022 174.943C449.351 174.639 448.787 174.234 448.331 173.727C447.888 173.22 447.552 172.644 447.324 171.998C447.109 171.352 447.001 170.681 447.001 169.984V169.604C447.001 168.869 447.115 168.173 447.343 167.514C447.584 166.855 447.932 166.273 448.388 165.766C448.844 165.259 449.408 164.86 450.079 164.569C450.751 164.278 451.523 164.132 452.397 164.132C453.36 164.132 454.209 164.322 454.943 164.702C455.678 165.082 456.261 165.608 456.691 166.279C457.135 166.938 457.382 167.698 457.432 168.559H454.05C454.012 168.141 453.854 167.786 453.575 167.495C453.309 167.204 452.917 167.058 452.397 167.058C451.954 167.058 451.587 167.172 451.295 167.4C451.017 167.628 450.808 167.945 450.668 168.35C450.529 168.755 450.459 169.237 450.459 169.794C450.459 170.313 450.516 170.776 450.63 171.181C450.757 171.586 450.96 171.903 451.238 172.131C451.53 172.346 451.916 172.454 452.397 172.454C452.752 172.454 453.05 172.391 453.29 172.264C453.531 172.137 453.721 171.96 453.86 171.732C454 171.491 454.088 171.213 454.126 170.896H457.508C457.458 171.783 457.204 172.562 456.748 173.233C456.305 173.904 455.71 174.43 454.962 174.81C454.215 175.19 453.36 175.38 452.397 175.38ZM464.259 175.152C463.119 175.152 462.207 175.013 461.523 174.734C460.851 174.455 460.364 173.993 460.06 173.347C459.756 172.701 459.604 171.827 459.604 170.725L459.623 161.776H462.815L462.796 170.82C462.796 171.289 462.916 171.65 463.157 171.903C463.41 172.144 463.771 172.264 464.24 172.264H465.684V175.152H464.259ZM458.084 167.02V164.512H465.684V167.02H458.084ZM472.725 175.38C471.8 175.38 470.977 175.241 470.255 174.962C469.533 174.683 468.919 174.297 468.412 173.803C467.918 173.309 467.538 172.739 467.272 172.093C467.019 171.447 466.892 170.757 466.892 170.022V169.566C466.892 168.806 467.025 168.097 467.291 167.438C467.57 166.779 467.962 166.203 468.469 165.709C468.976 165.215 469.59 164.829 470.312 164.55C471.034 164.271 471.838 164.132 472.725 164.132C473.624 164.132 474.429 164.271 475.138 164.55C475.86 164.829 476.474 165.215 476.981 165.709C477.488 166.203 477.874 166.779 478.14 167.438C478.419 168.097 478.558 168.806 478.558 169.566V170.022C478.558 170.757 478.425 171.447 478.159 172.093C477.906 172.739 477.526 173.309 477.019 173.803C476.525 174.297 475.917 174.683 475.195 174.962C474.473 175.241 473.65 175.38 472.725 175.38ZM472.725 172.492C473.257 172.492 473.694 172.378 474.036 172.15C474.391 171.922 474.657 171.605 474.834 171.2C475.011 170.782 475.1 170.313 475.1 169.794C475.1 169.249 475.005 168.774 474.815 168.369C474.638 167.951 474.372 167.622 474.017 167.381C473.662 167.14 473.232 167.02 472.725 167.02C472.218 167.02 471.788 167.14 471.433 167.381C471.078 167.622 470.806 167.951 470.616 168.369C470.439 168.774 470.35 169.249 470.35 169.794C470.35 170.313 470.439 170.782 470.616 171.2C470.793 171.605 471.059 171.922 471.414 172.15C471.769 172.378 472.206 172.492 472.725 172.492ZM487.215 175.342C486.354 175.342 485.6 175.165 484.954 174.81C484.321 174.455 483.821 173.936 483.453 173.252C483.099 172.568 482.909 171.732 482.883 170.744H483.187V175H480.451V161.13H483.909V168.274L483.149 169.034C483.187 168.008 483.384 167.134 483.738 166.412C484.093 165.69 484.581 165.145 485.201 164.778C485.835 164.398 486.563 164.208 487.386 164.208C488.096 164.208 488.735 164.341 489.305 164.607C489.875 164.86 490.357 165.228 490.749 165.709C491.155 166.178 491.465 166.735 491.68 167.381C491.896 168.027 492.003 168.736 492.003 169.509V169.965C492.003 170.738 491.896 171.453 491.68 172.112C491.465 172.758 491.148 173.328 490.73 173.822C490.312 174.303 489.806 174.677 489.21 174.943C488.628 175.209 487.963 175.342 487.215 175.342ZM486.227 172.492C486.683 172.492 487.082 172.378 487.424 172.15C487.779 171.909 488.051 171.58 488.241 171.162C488.444 170.744 488.545 170.269 488.545 169.737C488.545 169.192 488.444 168.724 488.241 168.331C488.051 167.926 487.785 167.615 487.443 167.4C487.101 167.172 486.696 167.058 486.227 167.058C485.809 167.058 485.417 167.153 485.049 167.343C484.695 167.533 484.403 167.812 484.175 168.179C483.947 168.546 483.833 168.99 483.833 169.509V170.155C483.833 170.649 483.954 171.073 484.194 171.428C484.435 171.77 484.739 172.036 485.106 172.226C485.474 172.403 485.847 172.492 486.227 172.492ZM493.903 175V164.512H496.639V169.072H496.601C496.601 167.603 496.905 166.45 497.513 165.614C498.134 164.778 499.021 164.36 500.173 164.36H500.591V167.324H499.793C499.021 167.324 498.419 167.533 497.988 167.951C497.57 168.369 497.361 168.971 497.361 169.756V175H493.903ZM506.84 175.38C505.953 175.38 505.168 175.228 504.484 174.924C503.8 174.62 503.224 174.208 502.755 173.689C502.286 173.17 501.925 172.587 501.672 171.941C501.431 171.295 501.311 170.63 501.311 169.946V169.566C501.311 168.857 501.431 168.179 501.672 167.533C501.925 166.874 502.28 166.292 502.736 165.785C503.205 165.278 503.775 164.879 504.446 164.588C505.117 164.284 505.877 164.132 506.726 164.132C507.853 164.132 508.81 164.385 509.595 164.892C510.38 165.399 510.982 166.07 511.4 166.906C511.818 167.729 512.027 168.629 512.027 169.604V170.706H502.755V168.844H510.032L508.835 169.68C508.835 169.085 508.753 168.584 508.588 168.179C508.436 167.761 508.202 167.444 507.885 167.229C507.581 167.014 507.195 166.906 506.726 166.906C506.27 166.906 505.871 167.014 505.529 167.229C505.2 167.432 504.946 167.748 504.769 168.179C504.592 168.597 504.503 169.129 504.503 169.775C504.503 170.358 504.585 170.864 504.75 171.295C504.915 171.713 505.168 172.036 505.51 172.264C505.852 172.492 506.295 172.606 506.84 172.606C507.321 172.606 507.714 172.524 508.018 172.359C508.335 172.194 508.556 171.973 508.683 171.694H511.837C511.685 172.403 511.381 173.037 510.925 173.594C510.482 174.151 509.912 174.588 509.215 174.905C508.531 175.222 507.739 175.38 506.84 175.38Z" fill="#D63341"/>
<rect x="197.5" y="1.5" width="158" height="140" rx="3.5" fill="#D63341" stroke="#D63341" stroke-width="3"/>
<path d="M244.12 118.66C239.361 118.66 235.211 117.802 231.67 116.087C228.128 114.316 225.389 111.937 223.453 108.949C221.571 105.906 220.631 102.447 220.631 98.574H235.571C235.571 100.732 236.318 102.503 237.812 103.886C239.306 105.214 241.408 105.878 244.12 105.878C245.946 105.878 247.495 105.546 248.768 104.882C250.04 104.163 251.009 103.222 251.673 102.06C252.337 100.843 252.669 99.487 252.669 97.993C252.669 95.7243 251.922 93.843 250.428 92.349C248.989 90.855 246.886 90.108 244.12 90.108C242.515 90.108 241.076 90.357 239.804 90.855C238.586 91.353 237.535 91.9893 236.65 92.764L229.761 81.31L246.527 71.018L245.78 69.69H223.204V56.41H265.368V69.607L243.539 82.887L236.567 80.314C237.729 79.982 238.946 79.733 240.219 79.567C241.547 79.401 242.902 79.318 244.286 79.318C249.044 79.318 253.167 80.065 256.653 81.559C260.139 83.053 262.822 85.211 264.704 88.033C266.64 90.7997 267.609 94.1197 267.609 97.993V98.989C267.609 102.807 266.64 106.21 264.704 109.198C262.822 112.131 260.111 114.455 256.57 116.17C253.084 117.83 248.934 118.66 244.12 118.66ZM303.024 118.66C298.1 118.66 293.894 117.885 290.408 116.336C286.922 114.731 284.073 112.573 281.859 109.862C279.646 107.095 278.014 103.941 276.962 100.4C275.911 96.8033 275.385 93.0407 275.385 89.112V84.298C275.385 78.7647 276.381 73.757 278.373 69.275C280.365 64.793 283.409 61.224 287.503 58.568C291.598 55.912 296.772 54.584 303.024 54.584C309.277 54.584 314.423 55.912 318.462 58.568C322.557 61.224 325.6 64.793 327.592 69.275C329.584 73.757 330.58 78.7647 330.58 84.298V89.112C330.58 93.0407 330.055 96.8033 329.003 100.4C327.952 103.941 326.32 107.095 324.106 109.862C321.948 112.573 319.126 114.731 315.64 116.336C312.154 117.885 307.949 118.66 303.024 118.66ZM303.024 104.384C307.119 104.384 310.162 102.945 312.154 100.068C314.146 97.1907 315.142 92.764 315.142 86.788C315.142 80.4247 314.119 75.8597 312.071 73.093C310.024 70.271 307.008 68.86 303.024 68.86C298.985 68.86 295.942 70.271 293.894 73.093C291.847 75.8597 290.823 80.3693 290.823 86.622C290.823 92.6533 291.819 97.1353 293.811 100.068C295.859 102.945 298.93 104.384 303.024 104.384Z" fill="white"/>
<path d="M227.217 175.342C225.697 175.342 224.5 175.032 223.626 174.411C222.752 173.778 222.283 172.891 222.22 171.751H225.26C225.31 172.068 225.507 172.34 225.849 172.568C226.191 172.796 226.672 172.91 227.293 172.91C227.736 172.91 228.116 172.847 228.433 172.72C228.762 172.581 228.927 172.359 228.927 172.055C228.927 171.789 228.8 171.574 228.547 171.409C228.293 171.232 227.831 171.111 227.16 171.048L226.438 170.972C225.095 170.833 224.107 170.465 223.474 169.87C222.84 169.275 222.524 168.527 222.524 167.628C222.524 166.855 222.714 166.222 223.094 165.728C223.474 165.221 223.999 164.841 224.671 164.588C225.342 164.335 226.108 164.208 226.97 164.208C228.376 164.208 229.509 164.518 230.371 165.139C231.232 165.747 231.688 166.627 231.739 167.78H228.699C228.648 167.463 228.477 167.197 228.186 166.982C227.894 166.754 227.476 166.64 226.932 166.64C226.539 166.64 226.216 166.71 225.963 166.849C225.722 166.988 225.602 167.185 225.602 167.438C225.602 167.704 225.716 167.9 225.944 168.027C226.184 168.154 226.564 168.249 227.084 168.312L227.806 168.388C229.148 168.527 230.181 168.901 230.903 169.509C231.637 170.104 232.005 170.89 232.005 171.865C232.005 172.587 231.808 173.208 231.416 173.727C231.036 174.246 230.485 174.645 229.763 174.924C229.053 175.203 228.205 175.342 227.217 175.342ZM238.646 175.38C237.759 175.38 236.974 175.228 236.29 174.924C235.606 174.62 235.029 174.208 234.561 173.689C234.092 173.17 233.731 172.587 233.478 171.941C233.237 171.295 233.117 170.63 233.117 169.946V169.566C233.117 168.857 233.237 168.179 233.478 167.533C233.731 166.874 234.086 166.292 234.542 165.785C235.01 165.278 235.58 164.879 236.252 164.588C236.923 164.284 237.683 164.132 238.532 164.132C239.659 164.132 240.615 164.385 241.401 164.892C242.186 165.399 242.788 166.07 243.206 166.906C243.624 167.729 243.833 168.629 243.833 169.604V170.706H234.561V168.844H241.838L240.641 169.68C240.641 169.085 240.558 168.584 240.394 168.179C240.242 167.761 240.007 167.444 239.691 167.229C239.387 167.014 239 166.906 238.532 166.906C238.076 166.906 237.677 167.014 237.335 167.229C237.005 167.432 236.752 167.748 236.575 168.179C236.397 168.597 236.309 169.129 236.309 169.775C236.309 170.358 236.391 170.864 236.556 171.295C236.72 171.713 236.974 172.036 237.316 172.264C237.658 172.492 238.101 172.606 238.646 172.606C239.127 172.606 239.52 172.524 239.824 172.359C240.14 172.194 240.362 171.973 240.489 171.694H243.643C243.491 172.403 243.187 173.037 242.731 173.594C242.287 174.151 241.717 174.588 241.021 174.905C240.337 175.222 239.545 175.38 238.646 175.38ZM245.655 178.8V164.512H248.391V169.034H248.087C248.125 168.008 248.328 167.134 248.695 166.412C249.075 165.69 249.588 165.145 250.234 164.778C250.88 164.398 251.621 164.208 252.457 164.208C253.179 164.208 253.832 164.341 254.414 164.607C254.997 164.86 255.497 165.228 255.915 165.709C256.333 166.178 256.65 166.735 256.865 167.381C257.093 168.027 257.207 168.736 257.207 169.509V169.965C257.207 170.738 257.106 171.453 256.903 172.112C256.701 172.758 256.397 173.328 255.991 173.822C255.586 174.303 255.086 174.677 254.49 174.943C253.908 175.209 253.236 175.342 252.476 175.342C251.666 175.342 250.95 175.184 250.329 174.867C249.709 174.538 249.215 174.05 248.847 173.404C248.493 172.745 248.303 171.922 248.277 170.934L249.113 171.96V178.8H245.655ZM251.431 172.492C251.887 172.492 252.286 172.378 252.628 172.15C252.983 171.909 253.255 171.58 253.445 171.162C253.648 170.744 253.749 170.269 253.749 169.737C253.749 169.192 253.648 168.724 253.445 168.331C253.255 167.926 252.989 167.615 252.647 167.4C252.305 167.172 251.9 167.058 251.431 167.058C251.013 167.058 250.621 167.153 250.253 167.343C249.899 167.533 249.607 167.812 249.379 168.179C249.151 168.546 249.037 168.99 249.037 169.509V170.155C249.037 170.649 249.158 171.073 249.398 171.428C249.639 171.77 249.943 172.036 250.31 172.226C250.678 172.403 251.051 172.492 251.431 172.492ZM264.105 175.152C262.965 175.152 262.053 175.013 261.369 174.734C260.697 174.455 260.21 173.993 259.906 173.347C259.602 172.701 259.45 171.827 259.45 170.725L259.469 161.776H262.661L262.642 170.82C262.642 171.289 262.762 171.65 263.003 171.903C263.256 172.144 263.617 172.264 264.086 172.264H265.53V175.152H264.105ZM257.93 167.02V164.512H265.53V167.02H257.93ZM272.267 175.38C271.38 175.38 270.595 175.228 269.911 174.924C269.227 174.62 268.65 174.208 268.182 173.689C267.713 173.17 267.352 172.587 267.099 171.941C266.858 171.295 266.738 170.63 266.738 169.946V169.566C266.738 168.857 266.858 168.179 267.099 167.533C267.352 166.874 267.707 166.292 268.163 165.785C268.631 165.278 269.201 164.879 269.873 164.588C270.544 164.284 271.304 164.132 272.153 164.132C273.28 164.132 274.236 164.385 275.022 164.892C275.807 165.399 276.409 166.07 276.827 166.906C277.245 167.729 277.454 168.629 277.454 169.604V170.706H268.182V168.844H275.459L274.262 169.68C274.262 169.085 274.179 168.584 274.015 168.179C273.863 167.761 273.628 167.444 273.312 167.229C273.008 167.014 272.621 166.906 272.153 166.906C271.697 166.906 271.298 167.014 270.956 167.229C270.626 167.432 270.373 167.748 270.196 168.179C270.018 168.597 269.93 169.129 269.93 169.775C269.93 170.358 270.012 170.864 270.177 171.295C270.341 171.713 270.595 172.036 270.937 172.264C271.279 172.492 271.722 172.606 272.267 172.606C272.748 172.606 273.141 172.524 273.445 172.359C273.761 172.194 273.983 171.973 274.11 171.694H277.264C277.112 172.403 276.808 173.037 276.352 173.594C275.908 174.151 275.338 174.588 274.642 174.905C273.958 175.222 273.166 175.38 272.267 175.38ZM279.276 175V164.512H282.012V169.034H281.86C281.86 167.945 281.993 167.045 282.259 166.336C282.538 165.614 282.943 165.076 283.475 164.721C284.007 164.354 284.66 164.17 285.432 164.17H285.584C286.37 164.17 287.022 164.354 287.541 164.721C288.073 165.076 288.472 165.614 288.738 166.336C289.017 167.045 289.156 167.945 289.156 169.034H288.358C288.358 167.945 288.491 167.045 288.757 166.336C289.036 165.614 289.441 165.076 289.973 164.721C290.505 164.354 291.158 164.17 291.93 164.17H292.082C292.868 164.17 293.526 164.354 294.058 164.721C294.603 165.076 295.015 165.614 295.293 166.336C295.585 167.045 295.73 167.945 295.73 169.034V175H292.272V168.939C292.272 168.458 292.139 168.059 291.873 167.742C291.62 167.413 291.253 167.248 290.771 167.248C290.29 167.248 289.91 167.413 289.631 167.742C289.365 168.059 289.232 168.47 289.232 168.977V175H285.774V168.939C285.774 168.458 285.641 168.059 285.375 167.742C285.122 167.413 284.755 167.248 284.273 167.248C283.792 167.248 283.412 167.413 283.133 167.742C282.867 168.059 282.734 168.47 282.734 168.977V175H279.276ZM304.818 175.342C303.956 175.342 303.203 175.165 302.557 174.81C301.923 174.455 301.423 173.936 301.056 173.252C300.701 172.568 300.511 171.732 300.486 170.744H300.79V175H298.054V161.13H301.512V168.274L300.752 169.034C300.79 168.008 300.986 167.134 301.341 166.412C301.695 165.69 302.183 165.145 302.804 164.778C303.437 164.398 304.165 164.208 304.989 164.208C305.698 164.208 306.338 164.341 306.908 164.607C307.478 164.86 307.959 165.228 308.352 165.709C308.757 166.178 309.067 166.735 309.283 167.381C309.498 168.027 309.606 168.736 309.606 169.509V169.965C309.606 170.738 309.498 171.453 309.283 172.112C309.067 172.758 308.751 173.328 308.333 173.822C307.915 174.303 307.408 174.677 306.813 174.943C306.23 175.209 305.565 175.342 304.818 175.342ZM303.83 172.492C304.286 172.492 304.685 172.378 305.027 172.15C305.381 171.909 305.654 171.58 305.844 171.162C306.046 170.744 306.148 170.269 306.148 169.737C306.148 169.192 306.046 168.724 305.844 168.331C305.654 167.926 305.388 167.615 305.046 167.4C304.704 167.172 304.298 167.058 303.83 167.058C303.412 167.058 303.019 167.153 302.652 167.343C302.297 167.533 302.006 167.812 301.778 168.179C301.55 168.546 301.436 168.99 301.436 169.509V170.155C301.436 170.649 301.556 171.073 301.797 171.428C302.037 171.77 302.341 172.036 302.709 172.226C303.076 172.403 303.45 172.492 303.83 172.492ZM311.506 175V164.512H314.242V169.072H314.204C314.204 167.603 314.508 166.45 315.116 165.614C315.737 164.778 316.623 164.36 317.776 164.36H318.194V167.324H317.396C316.623 167.324 316.022 167.533 315.591 167.951C315.173 168.369 314.964 168.971 314.964 169.756V175H311.506ZM324.443 175.38C323.556 175.38 322.771 175.228 322.087 174.924C321.403 174.62 320.826 174.208 320.358 173.689C319.889 173.17 319.528 172.587 319.275 171.941C319.034 171.295 318.914 170.63 318.914 169.946V169.566C318.914 168.857 319.034 168.179 319.275 167.533C319.528 166.874 319.883 166.292 320.339 165.785C320.807 165.278 321.377 164.879 322.049 164.588C322.72 164.284 323.48 164.132 324.329 164.132C325.456 164.132 326.412 164.385 327.198 164.892C327.983 165.399 328.585 166.07 329.003 166.906C329.421 167.729 329.63 168.629 329.63 169.604V170.706H320.358V168.844H327.635L326.438 169.68C326.438 169.085 326.355 168.584 326.191 168.179C326.039 167.761 325.804 167.444 325.488 167.229C325.184 167.014 324.797 166.906 324.329 166.906C323.873 166.906 323.474 167.014 323.132 167.229C322.802 167.432 322.549 167.748 322.372 168.179C322.194 168.597 322.106 169.129 322.106 169.775C322.106 170.358 322.188 170.864 322.353 171.295C322.517 171.713 322.771 172.036 323.113 172.264C323.455 172.492 323.898 172.606 324.443 172.606C324.924 172.606 325.317 172.524 325.621 172.359C325.937 172.194 326.159 171.973 326.286 171.694H329.44C329.288 172.403 328.984 173.037 328.528 173.594C328.084 174.151 327.514 174.588 326.818 174.905C326.134 175.222 325.342 175.38 324.443 175.38Z" fill="#D63341"/>
<rect x="197.5" y="131.5" width="158" height="62" rx="3.5" stroke="#D63341" stroke-width="3"/>
<rect x="591.5" y="1.5" width="158" height="140" rx="3.5" fill="#D63341" stroke="#D63341" stroke-width="3"/>
<path d="M648.599 117V103.72C648.599 101.064 649.041 98.74 649.927 96.748C650.867 94.7007 652.306 92.9023 654.243 91.353C656.235 89.8037 658.808 88.365 661.962 87.037L671.175 83.136C673.554 82.14 675.269 80.9503 676.321 79.567C677.427 78.1837 677.981 76.4407 677.981 74.338C677.981 72.4013 677.317 70.769 675.989 69.441C674.716 68.0577 672.835 67.366 670.345 67.366C667.799 67.366 665.89 68.0853 664.618 69.524C663.345 70.9073 662.709 72.7887 662.709 75.168H647.769C647.769 71.184 648.626 67.6427 650.342 64.544C652.057 61.4453 654.575 59.0107 657.895 57.24C661.27 55.4693 665.42 54.584 670.345 54.584C675.214 54.584 679.309 55.4417 682.629 57.157C686.004 58.817 688.549 61.1133 690.265 64.046C692.035 66.9233 692.921 70.188 692.921 73.84V74.836C692.921 79.5393 691.648 83.4127 689.103 86.456C686.557 89.4993 682.463 92.2383 676.819 94.673L667.606 98.574C666.278 99.1273 665.282 99.736 664.618 100.4C664.009 101.064 663.705 101.949 663.705 103.056V106.044L660.136 103.72H692.755V117H648.599Z" fill="white"/>
<path d="M636.883 175.38C635.959 175.38 635.135 175.241 634.413 174.962C633.691 174.683 633.077 174.297 632.57 173.803C632.076 173.309 631.696 172.739 631.43 172.093C631.177 171.447 631.05 170.757 631.05 170.022V169.566C631.05 168.806 631.183 168.097 631.449 167.438C631.728 166.779 632.121 166.203 632.627 165.709C633.134 165.215 633.748 164.829 634.47 164.55C635.192 164.271 635.997 164.132 636.883 164.132C637.783 164.132 638.587 164.271 639.296 164.55C640.018 164.829 640.633 165.215 641.139 165.709C641.646 166.203 642.032 166.779 642.298 167.438C642.577 168.097 642.716 168.806 642.716 169.566V170.022C642.716 170.757 642.583 171.447 642.317 172.093C642.064 172.739 641.684 173.309 641.177 173.803C640.683 174.297 640.075 174.683 639.353 174.962C638.631 175.241 637.808 175.38 636.883 175.38ZM636.883 172.492C637.415 172.492 637.852 172.378 638.194 172.15C638.549 171.922 638.815 171.605 638.992 171.2C639.17 170.782 639.258 170.313 639.258 169.794C639.258 169.249 639.163 168.774 638.973 168.369C638.796 167.951 638.53 167.622 638.175 167.381C637.821 167.14 637.39 167.02 636.883 167.02C636.377 167.02 635.946 167.14 635.591 167.381C635.237 167.622 634.964 167.951 634.774 168.369C634.597 168.774 634.508 169.249 634.508 169.794C634.508 170.313 634.597 170.782 634.774 171.2C634.952 171.605 635.218 171.922 635.572 172.15C635.927 172.378 636.364 172.492 636.883 172.492ZM649.397 175.38C648.485 175.38 647.694 175.234 647.022 174.943C646.351 174.639 645.787 174.234 645.331 173.727C644.888 173.22 644.552 172.644 644.324 171.998C644.109 171.352 644.001 170.681 644.001 169.984V169.604C644.001 168.869 644.115 168.173 644.343 167.514C644.584 166.855 644.932 166.273 645.388 165.766C645.844 165.259 646.408 164.86 647.079 164.569C647.751 164.278 648.523 164.132 649.397 164.132C650.36 164.132 651.209 164.322 651.943 164.702C652.678 165.082 653.261 165.608 653.691 166.279C654.135 166.938 654.382 167.698 654.432 168.559H651.05C651.012 168.141 650.854 167.786 650.575 167.495C650.309 167.204 649.917 167.058 649.397 167.058C648.954 167.058 648.587 167.172 648.295 167.4C648.017 167.628 647.808 167.945 647.668 168.35C647.529 168.755 647.459 169.237 647.459 169.794C647.459 170.313 647.516 170.776 647.63 171.181C647.757 171.586 647.96 171.903 648.238 172.131C648.53 172.346 648.916 172.454 649.397 172.454C649.752 172.454 650.05 172.391 650.29 172.264C650.531 172.137 650.721 171.96 650.86 171.732C651 171.491 651.088 171.213 651.126 170.896H654.508C654.458 171.783 654.204 172.562 653.748 173.233C653.305 173.904 652.71 174.43 651.962 174.81C651.215 175.19 650.36 175.38 649.397 175.38ZM661.259 175.152C660.119 175.152 659.207 175.013 658.523 174.734C657.851 174.455 657.364 173.993 657.06 173.347C656.756 172.701 656.604 171.827 656.604 170.725L656.623 161.776H659.815L659.796 170.82C659.796 171.289 659.916 171.65 660.157 171.903C660.41 172.144 660.771 172.264 661.24 172.264H662.684V175.152H661.259ZM655.084 167.02V164.512H662.684V167.02H655.084ZM669.725 175.38C668.8 175.38 667.977 175.241 667.255 174.962C666.533 174.683 665.919 174.297 665.412 173.803C664.918 173.309 664.538 172.739 664.272 172.093C664.019 171.447 663.892 170.757 663.892 170.022V169.566C663.892 168.806 664.025 168.097 664.291 167.438C664.57 166.779 664.962 166.203 665.469 165.709C665.976 165.215 666.59 164.829 667.312 164.55C668.034 164.271 668.838 164.132 669.725 164.132C670.624 164.132 671.429 164.271 672.138 164.55C672.86 164.829 673.474 165.215 673.981 165.709C674.488 166.203 674.874 166.779 675.14 167.438C675.419 168.097 675.558 168.806 675.558 169.566V170.022C675.558 170.757 675.425 171.447 675.159 172.093C674.906 172.739 674.526 173.309 674.019 173.803C673.525 174.297 672.917 174.683 672.195 174.962C671.473 175.241 670.65 175.38 669.725 175.38ZM669.725 172.492C670.257 172.492 670.694 172.378 671.036 172.15C671.391 171.922 671.657 171.605 671.834 171.2C672.011 170.782 672.1 170.313 672.1 169.794C672.1 169.249 672.005 168.774 671.815 168.369C671.638 167.951 671.372 167.622 671.017 167.381C670.662 167.14 670.232 167.02 669.725 167.02C669.218 167.02 668.788 167.14 668.433 167.381C668.078 167.622 667.806 167.951 667.616 168.369C667.439 168.774 667.35 169.249 667.35 169.794C667.35 170.313 667.439 170.782 667.616 171.2C667.793 171.605 668.059 171.922 668.414 172.15C668.769 172.378 669.206 172.492 669.725 172.492ZM684.215 175.342C683.354 175.342 682.6 175.165 681.954 174.81C681.321 174.455 680.821 173.936 680.453 173.252C680.099 172.568 679.909 171.732 679.883 170.744H680.187V175H677.451V161.13H680.909V168.274L680.149 169.034C680.187 168.008 680.384 167.134 680.738 166.412C681.093 165.69 681.581 165.145 682.201 164.778C682.835 164.398 683.563 164.208 684.386 164.208C685.096 164.208 685.735 164.341 686.305 164.607C686.875 164.86 687.357 165.228 687.749 165.709C688.155 166.178 688.465 166.735 688.68 167.381C688.896 168.027 689.003 168.736 689.003 169.509V169.965C689.003 170.738 688.896 171.453 688.68 172.112C688.465 172.758 688.148 173.328 687.73 173.822C687.312 174.303 686.806 174.677 686.21 174.943C685.628 175.209 684.963 175.342 684.215 175.342ZM683.227 172.492C683.683 172.492 684.082 172.378 684.424 172.15C684.779 171.909 685.051 171.58 685.241 171.162C685.444 170.744 685.545 170.269 685.545 169.737C685.545 169.192 685.444 168.724 685.241 168.331C685.051 167.926 684.785 167.615 684.443 167.4C684.101 167.172 683.696 167.058 683.227 167.058C682.809 167.058 682.417 167.153 682.049 167.343C681.695 167.533 681.403 167.812 681.175 168.179C680.947 168.546 680.833 168.99 680.833 169.509V170.155C680.833 170.649 680.954 171.073 681.194 171.428C681.435 171.77 681.739 172.036 682.106 172.226C682.474 172.403 682.847 172.492 683.227 172.492ZM690.903 175V164.512H693.639V169.072H693.601C693.601 167.603 693.905 166.45 694.513 165.614C695.134 164.778 696.021 164.36 697.173 164.36H697.591V167.324H696.793C696.021 167.324 695.419 167.533 694.988 167.951C694.57 168.369 694.361 168.971 694.361 169.756V175H690.903ZM703.84 175.38C702.953 175.38 702.168 175.228 701.484 174.924C700.8 174.62 700.224 174.208 699.755 173.689C699.286 173.17 698.925 172.587 698.672 171.941C698.431 171.295 698.311 170.63 698.311 169.946V169.566C698.311 168.857 698.431 168.179 698.672 167.533C698.925 166.874 699.28 166.292 699.736 165.785C700.205 165.278 700.775 164.879 701.446 164.588C702.117 164.284 702.877 164.132 703.726 164.132C704.853 164.132 705.81 164.385 706.595 164.892C707.38 165.399 707.982 166.07 708.4 166.906C708.818 167.729 709.027 168.629 709.027 169.604V170.706H699.755V168.844H707.032L705.835 169.68C705.835 169.085 705.753 168.584 705.588 168.179C705.436 167.761 705.202 167.444 704.885 167.229C704.581 167.014 704.195 166.906 703.726 166.906C703.27 166.906 702.871 167.014 702.529 167.229C702.2 167.432 701.946 167.748 701.769 168.179C701.592 168.597 701.503 169.129 701.503 169.775C701.503 170.358 701.585 170.864 701.75 171.295C701.915 171.713 702.168 172.036 702.51 172.264C702.852 172.492 703.295 172.606 703.84 172.606C704.321 172.606 704.714 172.524 705.018 172.359C705.335 172.194 705.556 171.973 705.683 171.694H708.837C708.685 172.403 708.381 173.037 707.925 173.594C707.482 174.151 706.912 174.588 706.215 174.905C705.531 175.222 704.739 175.38 703.84 175.38Z" fill="#D63341"/>
<rect x="591.5" y="131.5" width="158" height="62" rx="3.5" stroke="#D63341" stroke-width="3"/>
<path d="M234.699 32L231.697 21.512H235.231L238.024 32H234.699ZM235.801 32V29.112H239.164V32H235.801ZM237.017 32L239.392 21.512H242.698L240.114 32H237.017ZM248.962 32.38C248.075 32.38 247.29 32.228 246.606 31.924C245.922 31.62 245.346 31.2083 244.877 30.689C244.408 30.1697 244.047 29.587 243.794 28.941C243.553 28.295 243.433 27.63 243.433 26.946V26.566C243.433 25.8567 243.553 25.179 243.794 24.533C244.047 23.8743 244.402 23.2917 244.858 22.785C245.327 22.2783 245.897 21.8793 246.568 21.588C247.239 21.284 247.999 21.132 248.848 21.132C249.975 21.132 250.932 21.3853 251.717 21.892C252.502 22.3987 253.104 23.07 253.522 23.906C253.94 24.7293 254.149 25.6287 254.149 26.604V27.706H244.877V25.844H252.154L250.957 26.68C250.957 26.0847 250.875 25.5843 250.71 25.179C250.558 24.761 250.324 24.4443 250.007 24.229C249.703 24.0137 249.317 23.906 248.848 23.906C248.392 23.906 247.993 24.0137 247.651 24.229C247.322 24.4317 247.068 24.7483 246.891 25.179C246.714 25.597 246.625 26.129 246.625 26.775C246.625 27.3577 246.707 27.8643 246.872 28.295C247.037 28.713 247.29 29.036 247.632 29.264C247.974 29.492 248.417 29.606 248.962 29.606C249.443 29.606 249.836 29.5237 250.14 29.359C250.457 29.1943 250.678 28.9727 250.805 28.694H253.959C253.807 29.4033 253.503 30.0367 253.047 30.594C252.604 31.1513 252.034 31.5883 251.337 31.905C250.653 32.2217 249.861 32.38 248.962 32.38ZM255.972 32V21.512H258.708V26.015H258.556C258.556 24.9257 258.695 24.0263 258.974 23.317C259.252 22.595 259.664 22.0567 260.209 21.702C260.766 21.3473 261.437 21.17 262.223 21.17H262.375C263.565 21.17 264.484 21.569 265.13 22.367C265.788 23.1523 266.118 24.362 266.118 25.996V32H262.66V25.901C262.66 25.4197 262.514 25.027 262.223 24.723C261.944 24.4063 261.558 24.248 261.064 24.248C260.57 24.248 260.171 24.4063 259.867 24.723C259.575 25.027 259.43 25.4323 259.43 25.939V32H255.972ZM272.754 32.342C272.019 32.342 271.348 32.209 270.74 31.943C270.144 31.677 269.625 31.3097 269.182 30.841C268.751 30.3597 268.415 29.796 268.175 29.15C267.947 28.504 267.833 27.801 267.833 27.041V26.585C267.833 25.825 267.94 25.122 268.156 24.476C268.384 23.8173 268.707 23.2473 269.125 22.766C269.543 22.272 270.049 21.892 270.645 21.626C271.24 21.3473 271.905 21.208 272.64 21.208C273.488 21.208 274.21 21.398 274.806 21.778C275.414 22.1453 275.876 22.6837 276.193 23.393C276.522 24.1023 276.699 24.9637 276.725 25.977L275.927 25.388V18.13H279.385V32H276.649V27.744H277.029C277.003 28.6813 276.813 29.4983 276.459 30.195C276.104 30.879 275.61 31.411 274.977 31.791C274.356 32.1583 273.615 32.342 272.754 32.342ZM273.685 29.492C274.103 29.492 274.483 29.397 274.825 29.207C275.179 29.017 275.464 28.7383 275.68 28.371C275.895 28.0037 276.003 27.5603 276.003 27.041V26.395C276.003 25.8883 275.889 25.464 275.661 25.122C275.445 24.78 275.16 24.5203 274.806 24.343C274.464 24.153 274.09 24.058 273.685 24.058C273.229 24.058 272.817 24.1783 272.45 24.419C272.095 24.647 271.81 24.97 271.595 25.388C271.392 25.7933 271.291 26.2683 271.291 26.813C271.291 27.3577 271.392 27.8327 271.595 28.238C271.81 28.6307 272.095 28.941 272.45 29.169C272.817 29.3843 273.229 29.492 273.685 29.492ZM281.893 32V21.512H284.629V26.072H284.591C284.591 24.6027 284.895 23.45 285.503 22.614C286.123 21.778 287.01 21.36 288.163 21.36H288.581V24.324H287.783C287.01 24.324 286.408 24.533 285.978 24.951C285.56 25.369 285.351 25.9707 285.351 26.756V32H281.893ZM294.829 32.38C293.943 32.38 293.157 32.228 292.473 31.924C291.789 31.62 291.213 31.2083 290.744 30.689C290.276 30.1697 289.915 29.587 289.661 28.941C289.421 28.295 289.3 27.63 289.3 26.946V26.566C289.3 25.8567 289.421 25.179 289.661 24.533C289.915 23.8743 290.269 23.2917 290.725 22.785C291.194 22.2783 291.764 21.8793 292.435 21.588C293.107 21.284 293.867 21.132 294.715 21.132C295.843 21.132 296.799 21.3853 297.584 21.892C298.37 22.3987 298.971 23.07 299.389 23.906C299.807 24.7293 300.016 25.6287 300.016 26.604V27.706H290.744V25.844H298.021L296.824 26.68C296.824 26.0847 296.742 25.5843 296.577 25.179C296.425 24.761 296.191 24.4443 295.874 24.229C295.57 24.0137 295.184 23.906 294.715 23.906C294.259 23.906 293.86 24.0137 293.518 24.229C293.189 24.4317 292.936 24.7483 292.758 25.179C292.581 25.597 292.492 26.129 292.492 26.775C292.492 27.3577 292.575 27.8643 292.739 28.295C292.904 28.713 293.157 29.036 293.499 29.264C293.841 29.492 294.285 29.606 294.829 29.606C295.311 29.606 295.703 29.5237 296.007 29.359C296.324 29.1943 296.546 28.9727 296.672 28.694H299.826C299.674 29.4033 299.37 30.0367 298.914 30.594C298.471 31.1513 297.901 31.5883 297.204 31.905C296.52 32.2217 295.729 32.38 294.829 32.38ZM306.152 32.342C305.417 32.342 304.746 32.209 304.138 31.943C303.543 31.677 303.023 31.3097 302.58 30.841C302.149 30.3597 301.814 29.796 301.573 29.15C301.345 28.504 301.231 27.801 301.231 27.041V26.585C301.231 25.825 301.339 25.122 301.554 24.476C301.782 23.8173 302.105 23.2473 302.523 22.766C302.941 22.272 303.448 21.892 304.043 21.626C304.638 21.3473 305.303 21.208 306.038 21.208C306.887 21.208 307.609 21.398 308.204 21.778C308.812 22.1453 309.274 22.6837 309.591 23.393C309.92 24.1023 310.098 24.9637 310.123 25.977L309.325 25.388V18.13H312.783V32H310.047V27.744H310.427C310.402 28.6813 310.212 29.4983 309.857 30.195C309.502 30.879 309.008 31.411 308.375 31.791C307.754 32.1583 307.013 32.342 306.152 32.342ZM307.083 29.492C307.501 29.492 307.881 29.397 308.223 29.207C308.578 29.017 308.863 28.7383 309.078 28.371C309.293 28.0037 309.401 27.5603 309.401 27.041V26.395C309.401 25.8883 309.287 25.464 309.059 25.122C308.844 24.78 308.559 24.5203 308.204 24.343C307.862 24.153 307.488 24.058 307.083 24.058C306.627 24.058 306.215 24.1783 305.848 24.419C305.493 24.647 305.208 24.97 304.993 25.388C304.79 25.7933 304.689 26.2683 304.689 26.813C304.689 27.3577 304.79 27.8327 304.993 28.238C305.208 28.6307 305.493 28.941 305.848 29.169C306.215 29.3843 306.627 29.492 307.083 29.492ZM315.785 32V21.512H319.243V32H315.785ZM314.455 24.02V21.512H319.243V24.02H314.455ZM317.21 20.676C316.577 20.676 316.108 20.5177 315.804 20.201C315.513 19.8717 315.367 19.4537 315.367 18.947C315.367 18.4403 315.513 18.0287 315.804 17.712C316.108 17.3827 316.57 17.218 317.191 17.218C317.824 17.218 318.287 17.3827 318.578 17.712C318.869 18.0287 319.015 18.4403 319.015 18.947C319.015 19.4537 318.869 19.8717 318.578 20.201C318.287 20.5177 317.831 20.676 317.21 20.676Z" fill="white"/>
<path d="M626.249 32.342C625.514 32.342 624.843 32.209 624.235 31.943C623.639 31.677 623.12 31.3097 622.677 30.841C622.246 30.3597 621.91 29.796 621.67 29.15C621.442 28.504 621.328 27.801 621.328 27.041V26.585C621.328 25.825 621.435 25.122 621.651 24.476C621.879 23.8173 622.202 23.2473 622.62 22.766C623.038 22.272 623.544 21.892 624.14 21.626C624.735 21.3473 625.4 21.208 626.135 21.208C626.983 21.208 627.705 21.398 628.301 21.778C628.909 22.1453 629.371 22.6837 629.688 23.393C630.017 24.1023 630.194 24.9637 630.22 25.977L629.422 25.388V18.13H632.88V32H630.144V27.744H630.524C630.498 28.6813 630.308 29.4983 629.954 30.195C629.599 30.879 629.105 31.411 628.472 31.791C627.851 32.1583 627.11 32.342 626.249 32.342ZM627.18 29.492C627.598 29.492 627.978 29.397 628.32 29.207C628.674 29.017 628.959 28.7383 629.175 28.371C629.39 28.0037 629.498 27.5603 629.498 27.041V26.395C629.498 25.8883 629.384 25.464 629.156 25.122C628.94 24.78 628.655 24.5203 628.301 24.343C627.959 24.153 627.585 24.058 627.18 24.058C626.724 24.058 626.312 24.1783 625.945 24.419C625.59 24.647 625.305 24.97 625.09 25.388C624.887 25.7933 624.786 26.2683 624.786 26.813C624.786 27.3577 624.887 27.8327 625.09 28.238C625.305 28.6307 625.59 28.941 625.945 29.169C626.312 29.3843 626.724 29.492 627.18 29.492ZM635.882 32V21.512H639.34V32H635.882ZM634.552 24.02V21.512H639.34V24.02H634.552ZM637.307 20.676C636.673 20.676 636.205 20.5177 635.901 20.201C635.609 19.8717 635.464 19.4537 635.464 18.947C635.464 18.4403 635.609 18.0287 635.901 17.712C636.205 17.3827 636.667 17.218 637.288 17.218C637.921 17.218 638.383 17.3827 638.675 17.712C638.966 18.0287 639.112 18.4403 639.112 18.947C639.112 19.4537 638.966 19.8717 638.675 20.201C638.383 20.5177 637.927 20.676 637.307 20.676ZM641.882 32V21.512H644.618V26.034H644.466C644.466 24.9447 644.599 24.0453 644.865 23.336C645.144 22.614 645.549 22.0757 646.081 21.721C646.613 21.3537 647.265 21.17 648.038 21.17H648.19C648.975 21.17 649.628 21.3537 650.147 21.721C650.679 22.0757 651.078 22.614 651.344 23.336C651.623 24.0453 651.762 24.9447 651.762 26.034H650.964C650.964 24.9447 651.097 24.0453 651.363 23.336C651.642 22.614 652.047 22.0757 652.579 21.721C653.111 21.3537 653.763 21.17 654.536 21.17H654.688C655.473 21.17 656.132 21.3537 656.664 21.721C657.209 22.0757 657.62 22.614 657.899 23.336C658.19 24.0453 658.336 24.9447 658.336 26.034V32H654.878V25.939C654.878 25.4577 654.745 25.0587 654.479 24.742C654.226 24.4127 653.858 24.248 653.377 24.248C652.896 24.248 652.516 24.4127 652.237 24.742C651.971 25.0587 651.838 25.4703 651.838 25.977V32H648.38V25.939C648.38 25.4577 648.247 25.0587 647.981 24.742C647.728 24.4127 647.36 24.248 646.879 24.248C646.398 24.248 646.018 24.4127 645.739 24.742C645.473 25.0587 645.34 25.4703 645.34 25.977V32H641.882ZM667.005 32V28.922H666.435V25.635C666.435 25.1537 666.321 24.799 666.093 24.571C665.878 24.3303 665.517 24.21 665.01 24.21C664.77 24.21 664.415 24.2163 663.946 24.229C663.478 24.2417 662.984 24.2607 662.464 24.286C661.945 24.3113 661.47 24.3367 661.039 24.362V21.474C661.343 21.4487 661.704 21.4233 662.122 21.398C662.54 21.3727 662.971 21.3537 663.414 21.341C663.87 21.3283 664.288 21.322 664.668 21.322C665.745 21.322 666.657 21.4803 667.404 21.797C668.164 22.1137 668.741 22.5887 669.133 23.222C669.539 23.8553 669.741 24.6597 669.741 25.635V32H667.005ZM663.68 32.266C662.946 32.266 662.293 32.133 661.723 31.867C661.153 31.601 660.704 31.221 660.374 30.727C660.058 30.2203 659.899 29.6187 659.899 28.922C659.899 28.1367 660.108 27.5033 660.526 27.022C660.944 26.528 661.521 26.167 662.255 25.939C662.99 25.711 663.832 25.597 664.782 25.597H666.815V27.383H664.782C664.314 27.383 663.953 27.5033 663.699 27.744C663.446 27.972 663.319 28.2823 663.319 28.675C663.319 29.055 663.446 29.3653 663.699 29.606C663.953 29.834 664.314 29.948 664.782 29.948C665.086 29.948 665.352 29.8973 665.58 29.796C665.821 29.682 666.017 29.492 666.169 29.226C666.321 28.96 666.41 28.5927 666.435 28.124L667.233 28.884C667.17 29.606 666.993 30.2203 666.701 30.727C666.423 31.221 666.03 31.601 665.523 31.867C665.029 32.133 664.415 32.266 663.68 32.266ZM672.052 32V21.512H674.788V26.015H674.636C674.636 24.9257 674.775 24.0263 675.054 23.317C675.333 22.595 675.744 22.0567 676.289 21.702C676.846 21.3473 677.518 21.17 678.303 21.17H678.455C679.646 21.17 680.564 21.569 681.21 22.367C681.869 23.1523 682.198 24.362 682.198 25.996V32H678.74V25.901C678.74 25.4197 678.594 25.027 678.303 24.723C678.024 24.4063 677.638 24.248 677.144 24.248C676.65 24.248 676.251 24.4063 675.947 24.723C675.656 25.027 675.51 25.4323 675.51 25.939V32H672.052ZM689.309 32.38C688.397 32.38 687.605 32.2343 686.934 31.943C686.262 31.639 685.699 31.2337 685.243 30.727C684.799 30.2203 684.464 29.644 684.236 28.998C684.02 28.352 683.913 27.6807 683.913 26.984V26.604C683.913 25.8693 684.027 25.1727 684.255 24.514C684.495 23.8553 684.844 23.2727 685.3 22.766C685.756 22.2593 686.319 21.8603 686.991 21.569C687.662 21.2777 688.435 21.132 689.309 21.132C690.271 21.132 691.12 21.322 691.855 21.702C692.589 22.082 693.172 22.6077 693.603 23.279C694.046 23.9377 694.293 24.6977 694.344 25.559H690.962C690.924 25.141 690.765 24.7863 690.487 24.495C690.221 24.2037 689.828 24.058 689.309 24.058C688.865 24.058 688.498 24.172 688.207 24.4C687.928 24.628 687.719 24.9447 687.58 25.35C687.44 25.7553 687.371 26.2367 687.371 26.794C687.371 27.3133 687.428 27.7757 687.542 28.181C687.668 28.5863 687.871 28.903 688.15 29.131C688.441 29.3463 688.827 29.454 689.309 29.454C689.663 29.454 689.961 29.3907 690.202 29.264C690.442 29.1373 690.632 28.96 690.772 28.732C690.911 28.4913 691 28.2127 691.038 27.896H694.42C694.369 28.7827 694.116 29.5617 693.66 30.233C693.216 30.9043 692.621 31.43 691.874 31.81C691.126 32.19 690.271 32.38 689.309 32.38ZM696.173 32V18.13H699.631V26.034H699.175C699.175 24.97 699.308 24.077 699.574 23.355C699.84 22.633 700.226 22.0883 700.733 21.721C701.252 21.3537 701.892 21.17 702.652 21.17H702.804C703.944 21.17 704.812 21.5817 705.407 22.405C706.015 23.2283 706.319 24.438 706.319 26.034V32H702.861V25.901C702.861 25.4197 702.715 25.027 702.424 24.723C702.133 24.4063 701.746 24.248 701.265 24.248C700.784 24.248 700.391 24.4063 700.087 24.723C699.783 25.027 699.631 25.4323 699.631 25.939V32H696.173ZM713.563 32.38C712.676 32.38 711.891 32.228 711.207 31.924C710.523 31.62 709.946 31.2083 709.478 30.689C709.009 30.1697 708.648 29.587 708.395 28.941C708.154 28.295 708.034 27.63 708.034 26.946V26.566C708.034 25.8567 708.154 25.179 708.395 24.533C708.648 23.8743 709.003 23.2917 709.459 22.785C709.927 22.2783 710.497 21.8793 711.169 21.588C711.84 21.284 712.6 21.132 713.449 21.132C714.576 21.132 715.532 21.3853 716.318 21.892C717.103 22.3987 717.705 23.07 718.123 23.906C718.541 24.7293 718.75 25.6287 718.75 26.604V27.706H709.478V25.844H716.755L715.558 26.68C715.558 26.0847 715.475 25.5843 715.311 25.179C715.159 24.761 714.924 24.4443 714.608 24.229C714.304 24.0137 713.917 23.906 713.449 23.906C712.993 23.906 712.594 24.0137 712.252 24.229C711.922 24.4317 711.669 24.7483 711.492 25.179C711.314 25.597 711.226 26.129 711.226 26.775C711.226 27.3577 711.308 27.8643 711.473 28.295C711.637 28.713 711.891 29.036 712.233 29.264C712.575 29.492 713.018 29.606 713.563 29.606C714.044 29.606 714.437 29.5237 714.741 29.359C715.057 29.1943 715.279 28.9727 715.406 28.694H718.56C718.408 29.4033 718.104 30.0367 717.648 30.594C717.204 31.1513 716.634 31.5883 715.938 31.905C715.254 32.2217 714.462 32.38 713.563 32.38Z" fill="white"/>
</svg>
