<svg width="57" height="42" viewBox="0 0 57 42" fill="none" xmlns="http://www.w3.org/2000/svg">
<path d="M20.8881 32.5804C19.8115 34.151 18.6582 35.6677 17.4325 37.1249C8.66875 36.8755 5.34375 31.1874 5.34375 31.1874C5.46831 23.128 7.42138 15.202 11.0556 8.00741C14.2502 5.50824 18.1428 4.0641 22.1944 3.87491L23.3819 6.61804C25.0779 6.38258 26.7877 6.2596 28.5 6.24991C30.2199 6.25557 31.9376 6.37458 33.6419 6.60616L34.8294 3.86304C38.8849 4.06247 42.7779 5.51921 45.9681 8.03116C49.5907 15.2205 51.5355 23.1379 51.6562 31.1874C51.6562 31.1874 48.3312 36.8755 39.5675 37.1249C38.3603 35.6746 37.2268 34.1646 36.1712 32.6005M43.8425 29.1568C39.2825 31.4665 34.8697 33.7762 28.5 33.7762C22.1303 33.7762 17.7175 31.4665 13.1575 29.1568" stroke="white" stroke-width="3" stroke-linecap="round" stroke-linejoin="round"/>
<path d="M21.1933 27.1262C23.3904 27.1262 25.1715 25.3451 25.1715 23.148C25.1715 20.951 23.3904 19.1699 21.1933 19.1699C18.9963 19.1699 17.2152 20.951 17.2152 23.148C17.2152 25.3451 18.9963 27.1262 21.1933 27.1262Z" stroke="white" stroke-width="3" stroke-linecap="round" stroke-linejoin="round"/>
<path d="M35.8067 27.1262C38.0037 27.1262 39.7848 25.3451 39.7848 23.148C39.7848 20.951 38.0037 19.1699 35.8067 19.1699C33.6096 19.1699 31.8286 20.951 31.8286 23.148C31.8286 25.3451 33.6096 27.1262 35.8067 27.1262Z" stroke="white" stroke-width="3" stroke-linecap="round" stroke-linejoin="round"/>
</svg>
