<svg width="58" height="58" viewBox="0 0 58 58" fill="none" xmlns="http://www.w3.org/2000/svg">
<path d="M21.83 41.1913C20.7534 42.7619 19.6001 44.2786 18.3744 45.7359C9.61064 45.4865 6.28564 39.7984 6.28564 39.7984C6.41021 31.7389 8.36327 23.813 11.9975 16.6184C15.1921 14.1192 19.0847 12.6751 23.1363 12.4859L24.3238 15.229C26.0198 14.9935 27.7296 14.8706 29.4419 14.8609C31.1618 14.8665 32.8795 14.9855 34.5838 15.2171L35.7713 12.474C39.8268 12.6734 43.7198 14.1302 46.91 16.6421C50.5325 23.8315 52.4774 31.7488 52.5981 39.7984C52.5981 39.7984 49.2731 45.4865 40.5094 45.7359C39.3022 44.2856 38.1687 42.7756 37.1131 41.2115M44.7844 37.7678C40.2244 40.0774 35.8116 42.3871 29.4419 42.3871C23.0721 42.3871 18.6594 40.0774 14.0994 37.7678" stroke="white" stroke-width="3" stroke-linecap="round" stroke-linejoin="round"/>
<path d="M22.1354 35.7371C24.3324 35.7371 26.1135 33.9561 26.1135 31.759C26.1135 29.562 24.3324 27.7809 22.1354 27.7809C19.9383 27.7809 18.1572 29.562 18.1572 31.759C18.1572 33.9561 19.9383 35.7371 22.1354 35.7371Z" stroke="white" stroke-width="3" stroke-linecap="round" stroke-linejoin="round"/>
<path d="M36.7486 35.7371C38.9457 35.7371 40.7268 33.9561 40.7268 31.759C40.7268 29.562 38.9457 27.7809 36.7486 27.7809C34.5516 27.7809 32.7705 29.562 32.7705 31.759C32.7705 33.9561 34.5516 35.7371 36.7486 35.7371Z" stroke="white" stroke-width="3" stroke-linecap="round" stroke-linejoin="round"/>
</svg>
