<svg width="186" height="60" viewBox="0 0 186 60" fill="none" xmlns="http://www.w3.org/2000/svg">
<g clip-path="url(#clip0_2_437)">
<path d="M0 59.9927V55.3101H1.52726C1.74382 55.3043 1.9597 55.3366 2.16486 55.4055C2.33539 55.4618 2.48853 55.5603 2.60969 55.6918C2.7291 55.831 2.81752 55.9935 2.86918 56.1688C2.93177 56.3809 2.96177 56.6011 2.95815 56.822C2.95846 57.0457 2.926 57.2682 2.86177 57.4826C2.80251 57.6704 2.70682 57.8449 2.58004 57.9963C2.44635 58.1389 2.28152 58.2494 2.09813 58.3193C1.882 58.3968 1.65328 58.4341 1.42347 58.4294H0.585698V59.9927H0ZM0.585698 57.9156H1.42347C1.58493 57.9217 1.74606 57.8967 1.89796 57.8422C2.02566 57.7973 2.13848 57.7186 2.22417 57.6147C2.2861 57.5016 2.32157 57.3762 2.32797 57.2477C2.34417 57.0965 2.34417 56.9439 2.32797 56.7927C2.33047 56.6398 2.31555 56.4872 2.28348 56.3376C2.26142 56.2254 2.21318 56.1199 2.14262 56.0294C2.07115 55.9464 1.9792 55.8832 1.87572 55.8459C1.74664 55.8188 1.6145 55.809 1.48278 55.8165H0.585698V57.9156Z" fill="white"/>
<path d="M5.64209 59.9926V59.9412C5.74588 59.5082 5.86451 59.0532 5.99796 58.5981C6.13141 58.1431 6.27227 57.6954 6.42055 57.2697C6.56883 56.844 6.70969 56.4624 6.85056 56.1247C6.95519 55.8451 7.07905 55.5729 7.22125 55.3101H7.96264C8.10484 55.5729 8.2287 55.8451 8.33334 56.1247C8.4742 56.4624 8.61506 56.8587 8.76334 57.2697C8.91162 57.6807 9.05248 58.1357 9.18594 58.5981C9.31939 59.0605 9.43801 59.5082 9.5418 59.9412V59.9926H8.94869C8.94869 59.9486 8.94869 59.8605 8.88938 59.7284L8.80041 59.3981C8.80041 59.3101 8.75593 59.2146 8.72627 59.1192C8.69662 59.0238 8.68179 58.9357 8.65213 58.8403H6.49469C6.49469 58.9357 6.4502 59.0312 6.42055 59.1266C6.39089 59.222 6.36865 59.3174 6.34641 59.4128C6.32417 59.5082 6.29451 59.6036 6.27969 59.699C6.26486 59.7945 6.2352 59.8899 6.20555 59.9926H5.64209ZM7.59195 55.7798C7.50298 55.9413 7.42143 56.1174 7.33987 56.3082C7.24691 56.5091 7.16523 56.7149 7.09521 56.9247C7.01366 57.1376 6.93952 57.3651 6.86538 57.5926C6.79124 57.8202 6.71711 58.0697 6.64297 58.3266H8.53351C8.45937 58.077 8.38523 57.8422 8.31109 57.5926C8.23696 57.3431 8.16282 57.1376 8.08126 56.9247C7.99971 56.7119 7.91816 56.499 7.8366 56.3082C7.75505 56.1174 7.6735 55.9559 7.59195 55.7798Z" fill="white"/>
<path d="M12.7739 59.9927V55.3101H14.3012C14.5191 55.3037 14.7367 55.3309 14.9462 55.3909C15.1114 55.439 15.2618 55.5273 15.3836 55.6477C15.504 55.7722 15.5929 55.9231 15.6431 56.0881C15.7069 56.2949 15.7369 56.5105 15.7321 56.7266C15.7329 56.8924 15.713 57.0575 15.6728 57.2184C15.6339 57.3504 15.5765 57.4764 15.5022 57.5927C15.4282 57.6989 15.3352 57.7909 15.2279 57.8643C15.1164 57.942 14.9971 58.0084 14.8721 58.0624C15.0194 58.194 15.1513 58.3418 15.265 58.5028C15.3898 58.6716 15.5037 58.8481 15.606 59.0312C15.7098 59.2147 15.7988 59.3835 15.8729 59.545C15.9342 59.6733 15.9862 59.8057 16.0286 59.9413V59.9927H15.4133C15.3773 59.8573 15.325 59.7267 15.2576 59.6037C15.1834 59.4422 15.0871 59.2734 14.9833 59.0899C14.8791 58.9197 14.7653 58.7556 14.6422 58.5982C14.5417 58.4668 14.4273 58.3462 14.3012 58.2386H13.3448V59.9927H12.7739ZM13.3448 57.7248H14.1381C14.2946 57.7297 14.4507 57.7048 14.5977 57.6514C14.7158 57.6111 14.8208 57.5401 14.9017 57.4459C14.9828 57.3554 15.0412 57.2473 15.0722 57.1303C15.1096 56.999 15.1271 56.863 15.1241 56.7266C15.1276 56.581 15.1127 56.4356 15.0797 56.2936C15.049 56.1905 14.9959 56.0953 14.924 56.0147C14.8458 55.9446 14.7517 55.8942 14.6496 55.8679C14.5148 55.8295 14.3747 55.8122 14.2345 55.8165H13.3448V57.7248Z" fill="white"/>
<path d="M19.3872 59.9926V55.3101H19.9729V59.9926H19.3872Z" fill="white"/>
<path d="M23.4058 59.8092V59.2955H23.4577L23.7023 59.3542L24.0137 59.4202L24.3399 59.4716H24.6365H24.8366C24.9739 59.4731 25.1107 59.4583 25.2444 59.4276C25.3578 59.4057 25.4644 59.358 25.5558 59.2881C25.6454 59.2289 25.7151 59.1446 25.756 59.0459C25.8055 58.9324 25.8307 58.8099 25.8301 58.6863C25.8304 58.579 25.8129 58.4723 25.7782 58.3707C25.7519 58.29 25.7061 58.217 25.6448 58.1578C25.5818 58.0993 25.5091 58.0521 25.4298 58.0184C25.3343 57.9752 25.235 57.9408 25.1332 57.9156L24.466 57.7688C24.3381 57.7345 24.2139 57.6878 24.0953 57.6294C23.9754 57.5705 23.8654 57.4937 23.769 57.4019C23.6659 57.2993 23.5852 57.1769 23.5318 57.0422C23.463 56.8849 23.4301 56.7145 23.4354 56.5432C23.4348 56.3691 23.4701 56.1968 23.5392 56.0367C23.6097 55.884 23.7136 55.7487 23.8432 55.6404C23.9897 55.5286 24.1555 55.444 24.3325 55.3909C24.5369 55.3303 24.7493 55.3006 24.9627 55.3028H25.111C25.2047 55.296 25.2989 55.296 25.3927 55.3028C25.4998 55.3103 25.6064 55.325 25.7115 55.3468L26.0006 55.4055C26.0672 55.4237 26.1317 55.4483 26.1934 55.4789V55.9707H26.1711C26.0985 55.9495 26.024 55.9347 25.9487 55.9266L25.6744 55.8679L25.3853 55.8312H25.1258H24.9775C24.8427 55.8297 24.7083 55.8445 24.5772 55.8753C24.4728 55.8997 24.3745 55.9446 24.288 56.0074C24.2069 56.0686 24.143 56.1495 24.1027 56.2422C24.0549 56.3457 24.032 56.4588 24.0359 56.5725C24.0351 56.6734 24.0553 56.7733 24.0953 56.8661C24.1245 56.9429 24.173 57.0111 24.2361 57.0643C24.2995 57.1167 24.3692 57.161 24.4437 57.1964L24.7329 57.2918L25.3482 57.4606C25.4819 57.4991 25.6132 57.5457 25.7411 57.6C25.8628 57.6596 25.9752 57.7362 26.0748 57.8276C26.1795 57.9288 26.2604 58.0516 26.312 58.1872C26.3819 58.3596 26.4148 58.5446 26.4084 58.7303C26.4117 58.9125 26.3737 59.0931 26.2972 59.2588C26.2314 59.4203 26.124 59.562 25.9858 59.6698C25.8411 59.7919 25.6718 59.8819 25.4891 59.934C25.2746 59.995 25.0523 60.0247 24.8292 60.0221H24.6291H24.3103C24.1907 60.0121 24.0719 59.9949 23.9544 59.9707L23.6282 59.912L23.4058 59.8092Z" fill="white"/>
<path d="M33.9482 59.9927V55.3101H35.4755C35.6921 55.3043 35.9079 55.3366 36.1131 55.4055C36.2818 55.4655 36.4341 55.5635 36.5579 55.6918C36.6773 55.831 36.7658 55.9935 36.8174 56.1688C36.8775 56.3813 36.905 56.6015 36.899 56.822C36.9016 57.0453 36.8716 57.2678 36.81 57.4826C36.7482 57.6708 36.65 57.8453 36.5209 57.9963C36.3913 58.1403 36.2285 58.2511 36.0464 58.3193C35.83 58.3956 35.6014 58.4329 35.3717 58.4294H34.5339V59.9927H33.9482ZM34.5339 57.9156H35.3717C35.5332 57.9217 35.6943 57.8967 35.8462 57.8422C35.9629 57.7959 36.0634 57.7168 36.1353 57.6147C36.206 57.5133 36.254 57.3983 36.2762 57.2771C36.2924 57.1258 36.2924 56.9733 36.2762 56.822C36.2787 56.6692 36.2638 56.5165 36.2317 56.367C36.2097 56.2548 36.1614 56.1492 36.0909 56.0587C36.0194 55.9758 35.9274 55.9126 35.824 55.8752C35.6819 55.8342 35.5345 55.8144 35.3865 55.8165H34.4969L34.5339 57.9156Z" fill="white"/>
<path d="M39.583 59.9926V59.9412C39.6942 59.5082 39.8128 59.0532 39.9463 58.5981C40.0797 58.1431 40.2206 57.6954 40.3689 57.2697C40.5172 56.844 40.658 56.4624 40.7915 56.1247C40.9249 55.7871 41.0584 55.5082 41.1622 55.3101H41.9036C42.0458 55.5729 42.1696 55.8451 42.2743 56.1247C42.4151 56.4624 42.556 56.8587 42.7043 57.2697C42.8525 57.6807 42.986 58.1357 43.1269 58.5981C43.2677 59.0605 43.3789 59.5082 43.4827 59.9412V59.9926H42.8896C42.8896 59.9486 42.8896 59.8605 42.8303 59.7284L42.7413 59.3981C42.7413 59.3101 42.6968 59.2146 42.6672 59.1192C42.6375 59.0238 42.6227 58.9357 42.5931 58.8403H40.443C40.443 58.9357 40.3911 59.0312 40.3689 59.1266C40.3466 59.222 40.317 59.3174 40.2947 59.4128C40.2725 59.5082 40.2428 59.6036 40.2206 59.699C40.1984 59.7945 40.1761 59.8899 40.1539 59.9926H39.583ZM41.518 55.7798C41.4291 55.9413 41.3475 56.1174 41.266 56.3082C41.173 56.5091 41.0913 56.7149 41.0213 56.9247C40.9398 57.1376 40.8656 57.3651 40.7915 57.5926C40.7173 57.8202 40.6432 58.0697 40.5691 58.3266H42.4818C42.4077 58.077 42.3336 57.8422 42.2594 57.5926C42.1853 57.3431 42.1111 57.1376 42.0296 56.9247C41.948 56.7119 41.8665 56.499 41.7849 56.3082C41.7034 56.1174 41.6218 55.9559 41.518 55.7798Z" fill="white"/>
<path d="M46.7075 59.9926V55.3101H47.1005L49.6731 58.7743V55.3101H50.2662V59.9926H49.8733L47.3155 56.5137V59.9779L46.7075 59.9926Z" fill="white"/>
<path d="M54.9593 59.9926V55.8165H53.4766V55.3101H57.0352V55.8165H55.5525V59.9926H54.9593Z" fill="white"/>
<path d="M60.2378 59.9926V55.3101H60.8309V57.2477H63.1515V55.3101H63.7594V59.9926H63.1737V57.7908H60.8309V59.9926H60.2378Z" fill="white"/>
<path d="M67.3926 58.7156V55.3101H70.0616V55.8165H67.9931V57.2844H69.8614V57.8055H67.9931V58.8036C67.989 58.9101 68.0015 59.0166 68.0302 59.1192C68.0569 59.2002 68.0998 59.2751 68.1562 59.3394C68.2157 59.3914 68.2833 59.4335 68.3564 59.4642C68.4444 59.4949 68.5373 59.5098 68.6307 59.5082H70.0616V60.022H68.6752C68.4871 60.0258 68.2996 60.0011 68.1191 59.9486C67.9688 59.9028 67.8316 59.8223 67.7188 59.7137C67.6087 59.6011 67.5252 59.4657 67.4741 59.3174C67.4135 59.1226 67.3859 58.9193 67.3926 58.7156ZM68.3564 54.811V54.7156L68.9717 53.8348H69.5871V53.9303L68.7048 54.811H68.3564Z" fill="white"/>
<path d="M73.2344 57.8422V57.4606C73.2391 57.1529 73.2942 56.8481 73.3975 56.5578C73.4688 56.3046 73.5982 56.071 73.7756 55.8753C73.9425 55.6824 74.1571 55.5358 74.3984 55.4496C74.6673 55.3449 74.9547 55.295 75.2435 55.3028C75.5316 55.2964 75.8183 55.3437 76.0887 55.4422C76.3247 55.531 76.5357 55.6745 76.7041 55.8606C76.8795 56.056 77.011 56.2862 77.0896 56.5358C77.1765 56.8364 77.219 57.1479 77.2156 57.4606V57.8422C77.218 58.1476 77.1755 58.4517 77.0896 58.745C77.0093 58.9961 76.8781 59.2283 76.7041 59.4276C76.5341 59.6137 76.3237 59.7593 76.0887 59.8533C75.5392 60.044 74.9405 60.044 74.3909 59.8533C74.155 59.7645 73.944 59.621 73.7756 59.4349C73.5998 59.2409 73.4706 59.01 73.3975 58.7597C73.2951 58.4642 73.2401 58.1546 73.2344 57.8422ZM73.8275 57.8422C73.8232 58.0898 73.8531 58.3367 73.9165 58.5762C73.9664 58.7633 74.0547 58.9381 74.1759 59.09C74.2914 59.2245 74.4393 59.328 74.6059 59.3909C74.801 59.4592 75.007 59.4916 75.2139 59.4863C75.4207 59.4911 75.6267 59.4588 75.8218 59.3909C75.9874 59.3261 76.1349 59.2229 76.2518 59.09C76.3706 58.9376 76.4564 58.7627 76.5039 58.5762C76.5672 58.3367 76.5971 58.0898 76.5929 57.8422V57.4606C76.5964 57.2131 76.5665 56.9663 76.5039 56.7266C76.4564 56.5423 76.3706 56.3698 76.2518 56.2202C76.137 56.085 75.9889 55.9814 75.8218 55.9193C75.6271 55.8489 75.4211 55.8141 75.2139 55.8166C75.0066 55.8134 74.8005 55.8483 74.6059 55.9193C74.4379 55.9795 74.2893 56.0835 74.1759 56.2202C74.0547 56.3693 73.9663 56.5418 73.9165 56.7266C73.8539 56.9663 73.8239 57.2131 73.8275 57.4606V57.8422Z" fill="white"/>
<path d="M80.6411 59.9926V55.3101H81.0341L83.6067 58.7743V55.3101H84.1924V59.9926H83.7772L81.2342 56.5137V59.9779L80.6411 59.9926Z" fill="white"/>
<path d="M87.647 57.8422V57.3578H89.4263V57.8422H87.647Z" fill="white"/>
<path d="M92.2808 59.9926V59.9412C92.3846 59.5082 92.5032 59.0532 92.644 58.5981C92.7849 58.1431 92.9184 57.6954 93.0666 57.2697C93.2149 56.844 93.3558 56.4624 93.4892 56.1247C93.597 55.8464 93.7208 55.5744 93.8599 55.3101H94.6013C94.7405 55.5744 94.8642 55.8464 94.972 56.1247C95.1055 56.4624 95.2463 56.844 95.3946 57.2697C95.5429 57.6954 95.6837 58.1357 95.8172 58.5981C95.9506 59.0605 96.0767 59.5082 96.1805 59.9412V59.9926H95.6393C95.6393 59.9486 95.617 59.8605 95.5725 59.7284C95.5725 59.5963 95.5132 59.4862 95.491 59.3981C95.4687 59.3101 95.4391 59.2146 95.4168 59.1192C95.3946 59.0238 95.3649 58.9357 95.3427 58.8403H93.163C93.163 58.9357 93.1111 59.0312 93.0889 59.1266C93.0666 59.222 93.037 59.3174 93.0073 59.4128L92.9406 59.699L92.8739 59.9926H92.2808ZM94.2306 55.7798C94.1491 55.9413 94.0675 56.1174 93.9785 56.3082C93.8896 56.499 93.8154 56.7046 93.7339 56.9247C93.6523 57.1449 93.5856 57.3651 93.5041 57.5926C93.4225 57.8202 93.3558 58.0697 93.2816 58.3266H95.1722C95.1055 58.077 95.0313 57.8422 94.9572 57.5926C94.883 57.3431 94.8015 57.1376 94.7273 56.9247C94.6532 56.7119 94.5642 56.499 94.4827 56.3082C94.4086 56.1276 94.3245 55.9512 94.2306 55.7798Z" fill="white"/>
<path d="M99.2427 59.8091V59.2954H99.2946L99.5392 59.3541L99.8506 59.4201L100.184 59.4715H100.481H100.674C100.811 59.473 100.948 59.4582 101.081 59.4275C101.196 59.4036 101.305 59.3561 101.4 59.288C101.486 59.2263 101.552 59.1425 101.593 59.0458C101.646 58.9334 101.671 58.8102 101.667 58.6862C101.671 58.5786 101.653 58.4714 101.615 58.3706C101.589 58.29 101.543 58.2169 101.482 58.1577C101.42 58.0973 101.347 58.0499 101.267 58.0183C101.171 57.9751 101.072 57.9407 100.97 57.9155L100.325 57.7541C100.198 57.7186 100.074 57.6719 99.9544 57.6146C99.8346 57.5557 99.7246 57.479 99.6282 57.3871C99.5251 57.2846 99.4443 57.1622 99.391 57.0275C99.3222 56.8701 99.2893 56.6997 99.2946 56.5284C99.2939 56.3543 99.3293 56.182 99.3984 56.022C99.4717 55.8689 99.578 55.7336 99.7098 55.6256C99.8526 55.5124 100.016 55.4277 100.192 55.3761C100.396 55.3155 100.609 55.2858 100.822 55.288H100.97C101.064 55.2813 101.158 55.2813 101.252 55.288C101.359 55.2951 101.466 55.3098 101.571 55.3321L101.86 55.3908C101.928 55.4104 101.995 55.435 102.06 55.4642V55.9559H102.008C101.938 55.9301 101.866 55.9105 101.793 55.8972L101.519 55.8385L101.23 55.8018H100.97H100.829C100.694 55.8003 100.56 55.815 100.429 55.8458C100.325 55.8718 100.227 55.9166 100.14 55.9779C100.059 56.0391 99.9948 56.12 99.9544 56.2128C99.9092 56.3169 99.8889 56.4299 99.8951 56.5431C99.8919 56.6434 99.9096 56.7433 99.947 56.8366C99.9789 56.912 100.027 56.9796 100.088 57.0348C100.152 57.0856 100.222 57.1298 100.295 57.1669L100.585 57.2623L101.2 57.4311C101.336 57.4697 101.47 57.5163 101.6 57.5706C101.719 57.6321 101.828 57.7086 101.927 57.7981C102.031 57.9007 102.115 58.023 102.171 58.1577C102.235 58.3316 102.265 58.5159 102.26 58.7009C102.263 58.883 102.225 59.0636 102.149 59.2293C102.083 59.3909 101.976 59.5326 101.838 59.6403C101.693 59.7624 101.524 59.8525 101.341 59.9045C101.127 59.9665 100.904 59.9962 100.681 59.9926H100.488H100.169C100.047 59.9832 99.926 59.9661 99.8061 59.9412L99.4799 59.8825L99.2427 59.8091Z" fill="white"/>
<path d="M105.314 59.8091V59.2954H105.366L105.604 59.3541L105.915 59.4201L106.249 59.4715H106.545H106.76C106.897 59.4726 107.034 59.4578 107.168 59.4275C107.28 59.4023 107.386 59.3548 107.479 59.288C107.569 59.2288 107.639 59.1445 107.679 59.0458C107.726 58.9318 107.749 58.8093 107.746 58.6862C107.749 58.5793 107.734 58.4727 107.702 58.3706C107.675 58.29 107.63 58.2169 107.568 58.1577C107.505 58.0992 107.433 58.052 107.353 58.0183C107.257 57.9762 107.158 57.9419 107.057 57.9155L106.412 57.7541C106.283 57.721 106.159 57.6743 106.041 57.6146C105.92 57.5576 105.81 57.4806 105.715 57.3871C105.607 57.2871 105.523 57.1641 105.47 57.0275C105.407 56.8686 105.377 56.6989 105.381 56.5284C105.381 56.3543 105.416 56.182 105.485 56.022C105.553 55.8678 105.657 55.7319 105.789 55.6256C105.934 55.5109 106.1 55.4261 106.278 55.3761C106.483 55.3151 106.695 55.2854 106.908 55.288H107.057C107.15 55.2813 107.245 55.2813 107.338 55.288C107.443 55.2954 107.547 55.3101 107.65 55.3321C107.747 55.3453 107.844 55.3649 107.939 55.3908C108.008 55.4078 108.075 55.4324 108.139 55.4642V55.9559H108.087C108.018 55.9292 107.946 55.9095 107.872 55.8972L107.605 55.8385L107.316 55.8018H107.057H106.908C106.774 55.8003 106.639 55.815 106.508 55.8458C106.401 55.8703 106.301 55.9151 106.212 55.9779C106.13 56.0374 106.069 56.119 106.034 56.2128C105.986 56.3163 105.963 56.4293 105.967 56.5431C105.964 56.6434 105.981 56.7433 106.019 56.8366C106.053 56.9125 106.104 56.98 106.167 57.0348C106.229 57.0888 106.299 57.1334 106.375 57.1669C106.469 57.2054 106.565 57.2372 106.664 57.2623L107.272 57.4311C107.408 57.4697 107.542 57.5163 107.672 57.5706C107.793 57.6285 107.903 57.7053 107.998 57.7981C108.108 57.8969 108.192 58.0202 108.243 58.1577C108.307 58.3316 108.337 58.5159 108.332 58.7009C108.338 58.8825 108.302 59.0631 108.228 59.2293C108.157 59.3879 108.051 59.5284 107.917 59.6403C107.771 59.761 107.602 59.8509 107.42 59.9045C107.205 59.965 106.983 59.9947 106.76 59.9926H106.56H106.241C106.122 59.9826 106.003 59.9655 105.885 59.9412C105.759 59.9412 105.655 59.9045 105.552 59.8825L105.314 59.8091Z" fill="white"/>
<path d="M111.26 59.9926V59.9412C111.364 59.5082 111.483 59.0532 111.616 58.5981C111.75 58.1431 111.89 57.6954 112.039 57.2697C112.187 56.844 112.328 56.4624 112.469 56.1247C112.575 55.8468 112.696 55.5748 112.832 55.3101H113.573C113.716 55.5729 113.839 55.8451 113.944 56.1247C114.085 56.4624 114.226 56.8587 114.374 57.2697C114.522 57.6807 114.663 58.1357 114.797 58.5981C114.93 59.0605 115.049 59.5082 115.153 59.9412V59.9926H114.559C114.559 59.9486 114.559 59.8605 114.5 59.7284L114.411 59.3981C114.411 59.3101 114.367 59.2146 114.337 59.1192C114.307 59.0238 114.293 58.9357 114.263 58.8403H112.083C112.083 58.9357 112.039 59.0312 112.009 59.1266C111.979 59.222 111.957 59.3174 111.935 59.4128C111.913 59.5082 111.883 59.6036 111.868 59.699C111.853 59.7945 111.824 59.8899 111.794 59.9926H111.26ZM113.21 55.7798C113.121 55.9413 113.04 56.1174 112.958 56.3082C112.865 56.5091 112.783 56.7149 112.713 56.9247C112.632 57.1376 112.558 57.3651 112.484 57.5926L112.261 58.3266H114.174C114.1 58.077 114.026 57.8422 113.951 57.5926C113.877 57.3431 113.803 57.1376 113.722 56.9247C113.64 56.7119 113.559 56.499 113.477 56.3082C113.395 56.1174 113.292 55.9559 113.21 55.7798Z" fill="white"/>
<path d="M118.222 59.8091V59.2954H118.274L118.511 59.3541L118.823 59.4201L119.156 59.4715H119.453H119.646C119.785 59.473 119.925 59.4582 120.061 59.4275C120.173 59.4023 120.279 59.3548 120.372 59.288C120.462 59.2288 120.531 59.1445 120.572 59.0458C120.619 58.9318 120.642 58.8093 120.639 58.6862C120.642 58.5793 120.627 58.4727 120.595 58.3706C120.566 58.2895 120.517 58.2165 120.454 58.1577C120.395 58.0975 120.324 58.05 120.246 58.0183C120.15 57.9762 120.051 57.9419 119.95 57.9155L119.305 57.7541C119.176 57.721 119.052 57.6743 118.934 57.6146C118.813 57.5576 118.703 57.4806 118.608 57.3871C118.5 57.2871 118.416 57.1641 118.363 57.0275C118.3 56.8686 118.27 56.6989 118.274 56.5284C118.27 56.354 118.305 56.1809 118.378 56.022C118.446 55.8678 118.55 55.7319 118.682 55.6256C118.826 55.5109 118.993 55.4261 119.171 55.3761C119.375 55.3151 119.588 55.2854 119.801 55.288H119.95C120.043 55.2813 120.138 55.2813 120.231 55.288C120.336 55.2954 120.44 55.3101 120.543 55.3321C120.64 55.3459 120.737 55.3655 120.832 55.3908C120.901 55.4078 120.968 55.4324 121.032 55.4642V55.9559H120.98C120.911 55.9292 120.839 55.9095 120.765 55.8972L120.498 55.8385L120.202 55.8018H119.95H119.801C119.667 55.7994 119.532 55.8142 119.401 55.8458C119.294 55.8703 119.194 55.9151 119.104 55.9779C119.023 56.0391 118.959 56.12 118.919 56.2128C118.878 56.3182 118.858 56.4302 118.86 56.5431C118.857 56.6434 118.874 56.7433 118.912 56.8366C118.946 56.9125 118.997 56.98 119.06 57.0348C119.122 57.0888 119.192 57.1334 119.268 57.1669C119.362 57.2054 119.458 57.2372 119.557 57.2623L120.165 57.4311C120.301 57.4697 120.434 57.5163 120.565 57.5706C120.685 57.6285 120.796 57.7053 120.891 57.7981C121.001 57.8969 121.084 58.0202 121.136 58.1577C121.2 58.3316 121.23 58.5159 121.225 58.7009C121.231 58.8825 121.195 59.0631 121.121 59.2293C121.05 59.3879 120.944 59.5284 120.81 59.6403C120.662 59.7626 120.49 59.8526 120.305 59.9045C120.091 59.9665 119.869 59.9962 119.646 59.9926H119.453H119.134C119.015 59.9826 118.896 59.9655 118.778 59.9412C118.652 59.9412 118.548 59.9045 118.445 59.8825L118.222 59.8091Z" fill="white"/>
<path d="M128.713 58.3559V55.3101H129.306V58.3486C129.303 58.5232 129.331 58.6969 129.387 58.8623C129.439 58.998 129.52 59.1207 129.625 59.222C129.729 59.3104 129.85 59.3777 129.98 59.4201C130.127 59.4652 130.279 59.4875 130.433 59.4862C130.588 59.4875 130.743 59.4652 130.892 59.4201C131.023 59.3777 131.144 59.3104 131.248 59.222C131.353 59.1241 131.435 59.0036 131.485 58.8697C131.549 58.7033 131.579 58.5263 131.574 58.3486V55.3101H132.167V58.3559C132.17 58.5941 132.127 58.8306 132.041 59.0532C131.964 59.2496 131.846 59.4274 131.693 59.5743C131.534 59.7158 131.347 59.8233 131.144 59.8899C130.679 60.0366 130.179 60.0366 129.713 59.8899C129.511 59.8233 129.324 59.7158 129.165 59.5743C129.014 59.4275 128.897 59.2496 128.824 59.0532C128.747 58.8287 128.709 58.5929 128.713 58.3559Z" fill="white"/>
<path d="M135.771 59.9926V55.3101H136.164L138.729 58.7743V55.3101H139.322V59.9926H138.929L136.364 56.5137V59.9779L135.771 59.9926Z" fill="white"/>
<path d="M142.977 59.9926V55.3101H143.563V59.9926H142.977Z" fill="white"/>
<path d="M150.651 55.3101V55.3541C150.554 55.7871 150.436 56.2348 150.302 56.6972C150.169 57.1596 150.035 57.6073 149.887 58.033C149.739 58.4587 149.605 58.8403 149.464 59.1779C149.357 59.4564 149.233 59.7284 149.094 59.9926H148.352C148.215 59.725 148.091 59.4506 147.982 59.1706C147.841 58.833 147.7 58.4367 147.552 58.0257C147.403 57.6146 147.27 57.1596 147.136 56.6972C147.003 56.2348 146.87 55.7798 146.795 55.3541V55.3101H147.389C147.477 55.699 147.566 56.088 147.67 56.4697C147.774 56.8513 147.878 57.2036 147.996 57.6C148.115 57.9963 148.234 58.3339 148.36 58.6422C148.471 58.938 148.6 59.2271 148.745 59.5082C148.871 59.2587 149.005 58.9651 149.131 58.6422C149.257 58.3192 149.383 57.9669 149.501 57.5926C149.62 57.2183 149.724 56.8587 149.82 56.4624C149.917 56.066 150.013 55.6917 150.102 55.3101H150.651Z" fill="white"/>
<path d="M153.854 58.7156V55.3101H156.523V55.8165H154.447V57.2844H156.315V57.8055H154.447V58.8036C154.445 58.9105 154.46 59.017 154.491 59.1192C154.518 59.2002 154.561 59.2751 154.617 59.3394C154.677 59.3913 154.744 59.4335 154.817 59.4642C154.903 59.4949 154.993 59.5099 155.084 59.5082H156.523V60.022H155.136C154.948 60.0258 154.761 60.0011 154.58 59.9486C154.43 59.9028 154.293 59.8223 154.18 59.7137C154.07 59.6011 153.986 59.4657 153.935 59.3174C153.874 59.1226 153.847 58.9193 153.854 58.7156Z" fill="white"/>
<path d="M160 59.9926V55.31H161.527C161.742 55.303 161.958 55.3303 162.164 55.3908C162.332 55.4386 162.485 55.5269 162.609 55.6477C162.73 55.7722 162.818 55.923 162.869 56.088C162.932 56.2948 162.962 56.5104 162.958 56.7266C162.96 56.8928 162.937 57.0585 162.891 57.2183C162.856 57.3516 162.798 57.4781 162.72 57.5926C162.649 57.6986 162.559 57.7907 162.454 57.8642C162.342 57.9419 162.223 58.0083 162.098 58.0623C162.243 58.1942 162.372 58.3419 162.483 58.5027C162.613 58.6697 162.729 58.8464 162.832 59.0311C162.935 59.2146 163.024 59.3834 163.099 59.5449C163.16 59.6732 163.212 59.8056 163.254 59.9412V59.9926H162.639C162.603 59.8572 162.551 59.7266 162.483 59.6036C162.409 59.4421 162.313 59.2733 162.209 59.0899C162.105 58.9197 161.991 58.7555 161.868 58.5981C161.765 58.4684 161.651 58.348 161.527 58.2385H160.585V59.9926H160ZM160.585 57.7247H161.378C161.535 57.7296 161.691 57.7047 161.838 57.6513C161.956 57.611 162.061 57.54 162.142 57.4458C162.223 57.3553 162.282 57.2472 162.313 57.1302C162.35 56.9989 162.367 56.8629 162.365 56.7266C162.368 56.5809 162.353 56.4355 162.32 56.2935C162.289 56.1904 162.236 56.0952 162.164 56.0146C162.086 55.9445 161.992 55.8941 161.89 55.8678C161.755 55.8294 161.615 55.8121 161.475 55.8165H160.585V57.7247Z" fill="white"/>
<path d="M166.39 59.8091V59.2954H166.442L166.679 59.3541L166.991 59.4202L167.324 59.4715H167.621H167.814C167.953 59.473 168.093 59.4583 168.229 59.4275C168.341 59.4023 168.447 59.3549 168.54 59.288C168.626 59.2246 168.694 59.1414 168.74 59.0458C168.787 58.9318 168.81 58.8094 168.807 58.6862C168.81 58.5793 168.795 58.4728 168.763 58.3706C168.731 58.2909 168.683 58.2185 168.622 58.1578C168.562 58.099 168.491 58.0517 168.414 58.0183C168.316 57.9752 168.214 57.9408 168.11 57.9156L167.465 57.7541C167.34 57.7198 167.218 57.6731 167.102 57.6147C166.98 57.5593 166.869 57.4822 166.776 57.3871C166.668 57.2871 166.584 57.1641 166.531 57.0275C166.468 56.8686 166.438 56.699 166.442 56.5284C166.438 56.354 166.473 56.1809 166.546 56.022C166.614 55.8678 166.718 55.7319 166.85 55.6257C166.994 55.5109 167.161 55.4261 167.339 55.3761C167.543 55.3151 167.756 55.2854 167.969 55.2881H168.11C168.206 55.2811 168.303 55.2811 168.399 55.2881C168.504 55.2954 168.608 55.3102 168.711 55.3321L169 55.3908C169.069 55.4079 169.136 55.4325 169.2 55.4642V55.9559H169.148C169.078 55.9302 169.006 55.9105 168.933 55.8972L168.659 55.8385L168.37 55.8018H168.11H167.969C167.834 55.7994 167.7 55.8142 167.569 55.8458C167.462 55.8703 167.362 55.9152 167.272 55.978C167.191 56.0392 167.127 56.1201 167.087 56.2128C167.046 56.3182 167.026 56.4303 167.028 56.5431C167.025 56.6434 167.042 56.7434 167.08 56.8367C167.112 56.914 167.163 56.9821 167.228 57.0348C167.29 57.0889 167.36 57.1334 167.435 57.1669C167.53 57.2054 167.626 57.2373 167.725 57.2624L168.333 57.4312C168.469 57.4697 168.602 57.5163 168.733 57.5706C168.853 57.6285 168.964 57.7053 169.059 57.7981C169.169 57.8969 169.252 58.0203 169.304 58.1578C169.368 58.3316 169.398 58.5159 169.393 58.7009C169.395 58.8822 169.36 59.062 169.289 59.2293C169.218 59.3879 169.111 59.5285 168.978 59.6403C168.83 59.7626 168.658 59.8526 168.473 59.9046C168.259 59.9665 168.037 59.9962 167.814 59.9926H167.621H167.302C167.18 59.9822 167.059 59.9651 166.939 59.9413L166.613 59.8825L166.39 59.8091Z" fill="white"/>
<path d="M172.781 59.9926V55.3101H173.367V59.9926H172.781Z" fill="white"/>
<path d="M178.06 59.9926V55.8165H176.577V55.3101H180.158V55.8165H178.675V59.9926H178.06Z" fill="white"/>
<path d="M183.339 58.7156V55.3101H186V55.8165H183.932V57.2844H185.8V57.8055H183.932V58.8036C183.93 58.9105 183.945 59.017 183.976 59.1192C184.003 59.2002 184.046 59.2751 184.102 59.3394C184.159 59.3951 184.227 59.4377 184.302 59.4642C184.404 59.4802 184.507 59.4752 184.606 59.4495H186.037V59.9633H184.606C184.418 59.9682 184.231 59.9434 184.05 59.8899C183.899 59.8475 183.76 59.7665 183.65 59.655C183.535 59.5463 183.451 59.4097 183.405 59.2587C183.356 59.0819 183.333 58.8989 183.339 58.7156ZM184.295 54.811V54.7156L184.918 53.8348H185.526V53.9303L184.643 54.811H184.295Z" fill="white"/>
<path d="M135.986 17.9376H126.036C125.064 17.9744 124.107 18.1961 123.219 18.5908C122.373 18.9845 121.603 19.5209 120.943 20.1762C120.259 20.8462 119.717 21.6447 119.349 22.5248C118.975 23.426 118.784 24.391 118.786 25.3651V45.5413H124.554V25.3651C124.547 25.1483 124.586 24.9325 124.666 24.7307C124.746 24.5289 124.867 24.3452 125.021 24.1908C125.314 23.8741 125.722 23.6843 126.155 23.6624H141.924C141.924 23.6624 142.384 17.9376 135.993 17.9376" fill="white"/>
<path d="M180.217 23.7725V45.4239H186V17.8569C186 17.8569 180.217 17.4092 180.217 23.7725Z" fill="white"/>
<path d="M180.217 9.81287V16.4771C180.217 16.4771 186 16.9248 186 10.6055V9.87158L180.217 9.81287Z" fill="white"/>
<path d="M172.603 20.345C171.918 19.667 171.108 19.1262 170.216 18.7523C169.299 18.3589 168.309 18.1566 167.31 18.1578H152.727C151.707 18.1476 150.696 18.3501 149.761 18.7523C148.88 19.1303 148.08 19.6708 147.403 20.345C146.719 21.0218 146.175 21.8247 145.802 22.7083C145.398 23.6146 145.191 24.5948 145.194 25.5854V38.1138C145.18 39.1244 145.387 40.126 145.802 41.0496C146.185 41.921 146.728 42.7148 147.403 43.3909C148.085 44.0494 148.885 44.577 149.761 44.9468C150.697 45.348 151.707 45.5505 152.727 45.5413H167.703C174.123 45.5413 173.204 39.8166 173.204 39.8166H152.727C152.499 39.8226 152.273 39.7827 152.061 39.6993C151.85 39.6159 151.658 39.4907 151.497 39.3313C151.336 39.172 151.209 38.9819 151.125 38.7725C151.041 38.5632 151 38.3391 151.007 38.1138V35.09H167.317C168.294 35.0965 169.263 34.9067 170.164 34.5322C171.015 34.1755 171.8 33.6792 172.485 33.0643C173.158 32.4323 173.713 31.6867 174.123 30.8624C174.551 29.9735 174.788 29.0064 174.82 28.0221V25.534C174.822 24.5483 174.615 23.5731 174.212 22.6716C173.83 21.8036 173.287 21.0144 172.611 20.345M169.037 27.7285C169.033 27.9487 168.983 28.1657 168.892 28.3663C168.8 28.567 168.668 28.747 168.503 28.8955C168.35 29.0503 168.167 29.172 167.964 29.2529C167.761 29.3337 167.543 29.372 167.325 29.3652H151.014V25.5854C151.009 25.3613 151.05 25.1386 151.134 24.9307C151.218 24.7227 151.344 24.5338 151.504 24.3754C151.664 24.2169 151.855 24.0922 152.065 24.0088C152.275 23.9254 152.5 23.8849 152.727 23.89H167.302C167.528 23.882 167.754 23.9202 167.964 24.0023C168.175 24.0844 168.366 24.2085 168.526 24.367C168.687 24.526 168.814 24.7162 168.898 24.9258C168.982 25.1354 169.022 25.3599 169.015 25.5854L169.037 27.7285Z" fill="white"/>
<path d="M87.5285 20.345C86.8455 19.6648 86.0345 19.1237 85.1413 18.7523C84.224 18.3589 83.2347 18.1566 82.235 18.1578H67.6593C66.6396 18.1476 65.6291 18.3501 64.6937 18.7523C62.9091 19.5202 61.4896 20.9359 60.7273 22.7083C60.3333 23.6175 60.129 24.5961 60.1268 25.5854V38.1138C60.1177 39.1232 60.3223 40.1232 60.7273 41.0496C61.1161 41.9199 61.6612 42.7132 62.3361 43.3909C63.0154 44.0582 63.8151 44.5934 64.6937 44.9689C65.6291 45.3711 66.6396 45.5736 67.6593 45.5633H82.6354C89.0558 45.5633 88.1291 39.8386 88.1291 39.8386H67.6593C67.4312 39.8468 67.2038 39.8084 66.9914 39.7257C66.7789 39.6431 66.586 39.5179 66.4246 39.3581C66.2632 39.1984 66.1368 39.0073 66.0533 38.797C65.9698 38.5867 65.931 38.3616 65.9393 38.1358V35.09H82.2498C83.2272 35.0965 84.1957 34.9067 85.0968 34.5322C85.9501 34.1791 86.7352 33.6824 87.4173 33.0643C88.091 32.4323 88.6458 31.6867 89.0558 30.8624C89.4813 29.9729 89.7161 29.0058 89.7453 28.0221V25.534C89.7484 24.5497 89.5465 23.5753 89.1522 22.6716C88.7649 21.8048 88.2195 21.0161 87.5434 20.345M83.9699 27.7285C83.9642 27.9491 83.9133 28.1664 83.8203 28.367C83.7272 28.5676 83.594 28.7474 83.4287 28.8955C83.2757 29.0503 83.092 29.172 82.8891 29.2529C82.6862 29.3337 82.4685 29.372 82.2498 29.3652H65.9393V25.5854C65.932 25.3602 65.9716 25.1359 66.0555 24.9264C66.1395 24.717 66.2661 24.5269 66.4274 24.3679C66.5887 24.2089 66.7812 24.0844 66.9932 24.0022C67.2051 23.92 67.4318 23.8818 67.6593 23.89H82.235C82.4611 23.882 82.6864 23.9202 82.8969 24.0023C83.1073 24.0844 83.2985 24.2085 83.4583 24.367C83.6209 24.5256 83.7489 24.7156 83.8343 24.9252C83.9198 25.1347 83.9609 25.3594 83.955 25.5854L83.9699 27.7285Z" fill="white"/>
<path d="M100.414 18.1578V10.7449C100.406 10.5268 100.443 10.3093 100.523 10.1061C100.604 9.9028 100.725 9.71805 100.881 9.56328C101.178 9.24817 101.588 9.06105 102.023 9.04218H123.108C123.108 9.04218 124.027 3.30273 117.607 3.30273H101.867C100.894 3.34623 99.9387 3.57031 99.0497 3.96328C98.206 4.36059 97.4364 4.89663 96.7737 5.54861C96.0944 6.22092 95.5553 7.01894 95.1871 7.89723C94.8111 8.80055 94.6172 9.76794 94.6162 10.7449V45.5413H100.414V23.8899H110.134C116.554 23.8899 115.627 18.1578 115.627 18.1578H100.414Z" fill="white"/>
<path d="M6.84326 45.5413H9.72727L26.5272 38.9872L43.3197 45.5413H46.2111L26.5272 37.8569L6.84326 45.5413Z" fill="white"/>
<path d="M41.1101 40.8734L41.0434 33.8349C41.0933 33.8064 41.1351 33.7659 41.1649 33.7171C41.1947 33.6684 41.2116 33.6129 41.2139 33.556C41.214 33.502 41.2006 33.4489 41.1746 33.4015C41.1487 33.3541 41.1113 33.3138 41.0656 33.2844C41.0902 33.2534 41.1218 33.2286 41.1578 33.212C41.1939 33.1954 41.2334 33.1876 41.2732 33.189V32.8807C41.2732 32.8807 41.0434 32.8807 40.9989 32.411H41.7403V31.4642H42.2593L42.7634 29.8936H42.3705L42.7634 28.9468H37.885V25.5927L38.4114 24.6092V23.6991L38.7673 23.156V22.7009H37.8109L37.633 22.4073C37.633 14.5028 31.0124 11.3101 30.2191 10.9651L29.7594 10.2752L29.9299 9.93028H30.2042L30.4786 9.36514L30.093 9.02018L29.9818 8.71193H28.9809L29.2182 7.85321H28.714L28.6399 7.75046V5.6734C28.6709 5.63877 28.6892 5.59481 28.6918 5.54862C28.6918 5.51547 28.6838 5.4828 28.6683 5.45341C28.6528 5.42401 28.6303 5.39876 28.6028 5.37982V5.30642H28.6622L28.9142 4.72661H28.5435L29.2182 3.31009H28.7289C28.7011 2.87134 28.5587 2.44724 28.3157 2.0793C28.0727 1.71135 27.7373 1.41217 27.3425 1.21101H27.387L27.0904 0.587156C27.0917 0.460643 27.0541 0.336733 26.9826 0.231867C26.9111 0.127001 26.8091 0.0461362 26.6901 0L26.6307 0H26.3416H26.2823C26.1672 0.0500489 26.0695 0.132281 26.001 0.236591C25.9325 0.340902 25.8963 0.462747 25.8968 0.587156L25.6076 1.17431H25.6595C25.2656 1.37661 24.931 1.67609 24.6881 2.0438C24.4453 2.41151 24.3023 2.83501 24.2731 3.27339H23.8135L24.4659 4.72661H24.1026L24.3769 5.29908H24.4659V5.40184C24.4485 5.4191 24.4349 5.43975 24.4259 5.46249C24.417 5.48524 24.4129 5.50957 24.414 5.53395C24.4128 5.58177 24.4286 5.62849 24.4585 5.66606V7.73578L24.3843 7.84587H23.8357L24.0581 8.70459H23.1017L22.9831 9.01284L22.5457 9.3578L22.82 9.92294H23.0943L23.2648 10.2679L22.8274 10.9505C22.1824 11.2367 15.4135 14.4147 15.4135 22.4073L15.2207 22.7009H14.3756V23.156L14.7759 23.7064V24.6092L15.1837 25.5927V28.9468H10.2979L10.6908 29.8936H10.2979L10.8169 31.4642H11.2988V32.411H12.0402C11.9957 32.844 11.7733 32.8734 11.7659 32.8734V33.1817C11.8137 33.1806 11.861 33.1923 11.9028 33.2155C11.9445 33.2388 11.9792 33.2727 12.0031 33.3138C11.9719 33.3445 11.9472 33.3811 11.9307 33.4214C11.9141 33.4618 11.906 33.5051 11.9067 33.5486C11.9076 33.6059 11.9239 33.6619 11.9538 33.7109C11.9838 33.76 12.0264 33.8002 12.0772 33.8275L12.0105 40.8661L0 45.5413H2.88401L26.5269 36.3083L50.1699 45.5413H53.0613L41.1101 40.8734ZM26.9347 2.40734C27.172 2.40734 27.7502 3.14128 27.7799 3.70642V3.77248H27.0385V3.71376C27.0375 3.35301 26.9952 2.99353 26.9125 2.6422C26.9125 2.58349 26.9125 2.52477 26.9125 2.47339V2.4L26.9347 2.40734ZM27.6761 4.91743V4.97615V7.82385H27.1942V7.76514V4.91743H27.6761ZM25.2073 3.70642C25.2073 3.18532 25.7856 2.40734 26.0525 2.40734H26.1266V2.48073C26.1266 2.52477 26.1266 2.58349 26.1266 2.63486C26.027 2.98683 25.9673 3.3487 25.9487 3.71376V3.77248H25.2073V3.70642ZM25.8671 4.91743V4.97615V7.82385H25.3926V7.76514V4.91743H25.8671ZM28.3137 8.96881L28.2025 9.70275H24.8514L24.7402 8.96881H28.3137ZM24.0581 10.2752H28.9884L29.4035 11.0092H23.6504L24.0581 10.2752ZM16.7703 22.0184C16.8518 15.0459 23.0795 12.2936 23.3464 12.1835H24.4659C24.4659 12.1835 23.7245 12.5138 23.5243 12.6459C23.3241 12.778 17.5116 15.8826 17.6747 21.5193H20.7589C20.7241 19.8419 21.0349 18.175 21.6722 16.6204C22.3095 15.0658 23.2601 13.656 24.4659 12.4771L24.8292 12.1761H25.4L25.0812 12.6239C22.8111 15.0353 21.5476 18.2083 21.5448 21.5046H24.1248C24.1248 16.8881 25.0812 13.6147 25.6076 12.5211L25.7633 12.1761H26.4528L26.3416 12.5945C25.4388 15.4806 24.9741 18.4833 24.9626 21.5046H28.0987C28.092 18.4841 27.6323 15.4813 26.7345 12.5945L26.6159 12.1761H27.3128L27.4685 12.5211C28.5037 15.4023 28.9937 18.4476 28.9142 21.5046H31.5091C31.5063 18.2083 30.2428 15.0353 27.9727 12.6239L27.6539 12.1761H28.2173L28.588 12.4771C29.792 13.6543 30.7415 15.0617 31.3788 16.6136C32.016 18.1656 32.3278 19.8296 32.295 21.5046H35.3717C35.5348 15.8679 29.752 12.756 29.5222 12.6312C29.2923 12.5064 28.5806 12.1688 28.5806 12.1688H29.6927C29.9596 12.2789 36.1873 15.0312 36.2688 22.0037V22.2532H16.7628L16.7703 22.0184ZM15.9028 23.4128H37.2549V24.1468H15.9028V23.4128ZM36.3652 25.8569V28.9615H35.7276V25.8422C35.7276 25.6954 35.8092 25.1596 36.0464 25.1596C36.2836 25.1596 36.3652 25.6881 36.3652 25.8422V25.8569ZM33.8667 25.8569V28.9615H32.8065V25.8495C32.8065 25.8495 32.8065 25.1596 33.2958 25.1596C33.7852 25.1596 33.8667 25.7761 33.8667 25.8422V25.8569ZM30.9456 25.8569V28.9615H29.3442V25.8495C29.3406 25.7542 29.3576 25.6591 29.3942 25.5708C29.4308 25.4825 29.4861 25.4029 29.5563 25.3376C29.6266 25.2722 29.7102 25.2225 29.8015 25.1918C29.8928 25.1611 29.9897 25.1501 30.0856 25.1596C30.8715 25.1596 30.9456 25.6881 30.9456 25.8422V25.8569ZM27.3054 25.8569V28.9615H25.7485V25.8495C25.7745 25.6635 25.8676 25.493 26.0107 25.3696C26.1538 25.2462 26.3372 25.1782 26.5269 25.1782C26.7167 25.1782 26.9001 25.2462 27.0432 25.3696C27.1863 25.493 27.2794 25.6635 27.3054 25.8495V25.8569ZM23.68 25.8569V28.9541H22.1231V25.8495C22.1491 25.6635 22.2422 25.493 22.3853 25.3696C22.5284 25.2462 22.7118 25.1782 22.9015 25.1782C23.0913 25.1782 23.2747 25.2462 23.4178 25.3696C23.5609 25.493 23.654 25.6635 23.68 25.8495V25.8569ZM20.2548 25.8569V28.9541H19.1946V25.8495C19.1946 25.7761 19.1946 25.1596 19.721 25.1596C20.2474 25.1596 20.2474 25.7688 20.2548 25.8495V25.8569ZM17.3263 25.8569V28.9541H16.6887V25.8422C16.6887 25.6954 16.7628 25.1596 17.0075 25.1596C17.2522 25.1596 17.3263 25.6881 17.3263 25.8495V25.8569ZM15.4357 39.5156L13.6416 40.2128L13.5971 33.8275C13.642 33.7956 13.6788 33.7538 13.7045 33.7054C13.7302 33.657 13.7442 33.6033 13.7454 33.5486C13.7465 33.4961 13.735 33.4441 13.7118 33.3969C13.6886 33.3496 13.6544 33.3086 13.6119 33.2771C13.6326 33.2474 13.6603 33.2231 13.6926 33.2065C13.7249 33.1898 13.7608 33.1813 13.7973 33.1817V32.8734C13.7973 32.8734 13.5971 32.8734 13.5526 32.411H15.4357C15.3913 32.844 15.1985 32.8734 15.1911 32.8734V33.1817C15.2348 33.1819 15.2775 33.1944 15.3143 33.2178C15.3511 33.2412 15.3803 33.2745 15.3987 33.3138C15.3436 33.3797 15.3146 33.4631 15.3171 33.5486C15.315 33.6039 15.3276 33.6588 15.3536 33.7077C15.3796 33.7567 15.4182 33.798 15.4654 33.8275L15.4357 39.5156ZM18.8684 38.1651L17.052 38.8991V33.8275C17.0991 33.7973 17.138 33.7561 17.1652 33.7074C17.1923 33.6587 17.2069 33.6042 17.2077 33.5486C17.2077 33.4963 17.1957 33.4447 17.1726 33.3976C17.1494 33.3506 17.1158 33.3093 17.0742 33.2771C17.0949 33.2474 17.1226 33.2231 17.1549 33.2065C17.1872 33.1898 17.2231 33.1813 17.2596 33.1817V32.8734C17.2596 32.8734 17.052 32.8734 17.0149 32.411H18.8906C18.8536 32.844 18.6608 32.8734 18.6534 32.8734V33.1817C18.6971 33.1819 18.7398 33.1944 18.7766 33.2178C18.8134 33.2412 18.8426 33.2745 18.861 33.3138C18.8032 33.3786 18.7715 33.4622 18.772 33.5486C18.7714 33.6045 18.7854 33.6595 18.8127 33.7084C18.84 33.7573 18.8796 33.7983 18.9277 33.8275L18.8684 38.1651ZM22.3158 36.822L20.4846 37.556V33.8422C20.5304 33.8112 20.5678 33.7695 20.5936 33.7209C20.6195 33.6723 20.633 33.6182 20.6329 33.5633C20.6341 33.5108 20.6226 33.4588 20.5994 33.4115C20.5761 33.3643 20.5419 33.3232 20.4994 33.2917C20.5217 33.2619 20.5507 33.2377 20.5842 33.2211C20.6178 33.2045 20.6547 33.196 20.6922 33.1963V32.8881C20.6922 32.8881 20.4846 32.8881 20.4475 32.4257H22.3233C22.3233 32.8587 22.0934 32.8881 22.086 32.8881V33.1963C22.1299 33.1956 22.1731 33.2078 22.21 33.2313C22.247 33.2548 22.276 33.2886 22.2936 33.3284C22.2385 33.3943 22.2095 33.4778 22.2121 33.5633C22.2114 33.6192 22.2254 33.6742 22.2527 33.7231C22.28 33.772 22.3196 33.813 22.3677 33.8422L22.3158 36.822ZM25.7485 35.4789L23.9173 36.2128V33.8569C23.9602 33.8247 23.9951 33.7831 24.0191 33.7354C24.0431 33.6876 24.0556 33.635 24.0556 33.5817C24.0556 33.5283 24.0431 33.4757 24.0191 33.4279C23.9951 33.3802 23.9602 33.3386 23.9173 33.3064C23.9379 33.2767 23.9656 33.2525 23.9979 33.2358C24.0302 33.2192 24.0662 33.2107 24.1026 33.211V32.9028C24.1026 32.9028 23.9024 32.8514 23.8579 32.4184H25.7411C25.6966 32.8514 25.5038 32.9028 25.4964 32.9028V33.211C25.5399 33.2121 25.5823 33.2249 25.6189 33.2482C25.6555 33.2715 25.685 33.3044 25.704 33.3431C25.6489 33.409 25.6199 33.4925 25.6225 33.578C25.6203 33.6333 25.6329 33.6881 25.6589 33.7371C25.6849 33.786 25.7235 33.8273 25.7707 33.8569L25.7485 35.4789ZM29.1737 36.2128L27.3499 35.4789V33.8055C27.397 33.7753 27.4359 33.734 27.4631 33.6854C27.4902 33.6367 27.5048 33.5822 27.5056 33.5266C27.5056 33.4743 27.4936 33.4226 27.4705 33.3756C27.4473 33.3286 27.4137 33.2873 27.3721 33.2551C27.3928 33.2253 27.4205 33.2011 27.4528 33.1845C27.4851 33.1678 27.5211 33.1593 27.5575 33.1596V32.8514C27.5575 32.8514 27.3499 32.8514 27.3128 32.389H29.1885C29.1885 32.822 28.9587 32.8514 28.9513 32.8514V33.1596C28.995 33.1598 29.0378 33.1724 29.0745 33.1958C29.1113 33.2192 29.1406 33.2525 29.1589 33.2917C29.1011 33.3566 29.0695 33.4402 29.0699 33.5266C29.0693 33.5825 29.0833 33.6375 29.1106 33.6864C29.1379 33.7353 29.1775 33.7763 29.2256 33.8055L29.1737 36.2128ZM32.6212 37.556L30.7899 36.822V33.8128C30.8357 33.7818 30.8731 33.7402 30.899 33.6916C30.9248 33.643 30.9383 33.5889 30.9382 33.5339C30.9394 33.4814 30.9279 33.4294 30.9047 33.3822C30.8815 33.335 30.8472 33.2939 30.8048 33.2624C30.8259 33.2331 30.8536 33.2092 30.8859 33.1926C30.9181 33.176 30.9538 33.1673 30.9901 33.167V32.8587C30.9901 32.8587 30.7825 32.8587 30.7455 32.3963H32.6212C32.5841 32.8294 32.3913 32.8587 32.3839 32.8587V33.167C32.4278 33.1662 32.471 33.1784 32.5079 33.2019C32.5449 33.2254 32.574 33.2592 32.5915 33.2991C32.5364 33.365 32.5075 33.4485 32.51 33.5339C32.5093 33.5898 32.5234 33.6448 32.5506 33.6937C32.5779 33.7426 32.6176 33.7837 32.6657 33.8128L32.6212 37.556ZM36.0167 38.8991L34.2226 38.1651L34.1781 33.8055C34.223 33.7736 34.2598 33.7318 34.2855 33.6834C34.3112 33.635 34.3252 33.5813 34.3264 33.5266C34.3275 33.4741 34.316 33.4221 34.2928 33.3748C34.2696 33.3276 34.2354 33.2865 34.1929 33.2551C34.2136 33.2253 34.2413 33.2011 34.2736 33.1845C34.3059 33.1678 34.3418 33.1593 34.3783 33.1596V32.8514C34.3783 32.8514 34.1707 32.8514 34.1336 32.389H36.0167C35.9723 32.822 35.7795 32.8514 35.7721 32.8514V33.1596C35.8158 33.1598 35.8585 33.1724 35.8953 33.1958C35.9321 33.2192 35.9613 33.2525 35.9797 33.2917C35.9246 33.3576 35.8956 33.4411 35.8981 33.5266C35.896 33.5819 35.9086 33.6367 35.9346 33.6857C35.9606 33.7346 35.9992 33.776 36.0464 33.8055L36.0167 38.8991ZM39.442 40.2349L37.6478 39.5009L37.6033 33.8055C37.6505 33.7753 37.6893 33.734 37.7165 33.6854C37.7437 33.6367 37.7583 33.5822 37.759 33.5266C37.759 33.4743 37.747 33.4226 37.7239 33.3756C37.7008 33.3286 37.6672 33.2873 37.6256 33.2551C37.6462 33.2253 37.6739 33.2011 37.7062 33.1845C37.7385 33.1678 37.7745 33.1593 37.8109 33.1596V32.8514C37.8109 32.8514 37.6033 32.8514 37.5662 32.389H39.442C39.4049 32.822 39.2121 32.8514 39.2047 32.8514V33.1596C39.2497 33.1584 39.294 33.1703 39.3322 33.1938C39.3705 33.2172 39.4009 33.2513 39.4197 33.2917C39.362 33.3566 39.3303 33.4402 39.3308 33.5266C39.3301 33.5825 39.3441 33.6375 39.3714 33.6864C39.3987 33.7353 39.4384 33.7763 39.4865 33.8055L39.442 40.2349ZM40.6504 30.8991H12.4035L12.1959 30.1651H40.858L40.6504 30.8991Z" fill="white"/>
</g>
<defs>
<clipPath id="clip0_2_437">
<rect width="186" height="60" fill="white"/>
</clipPath>
</defs>
</svg>
