<svg width="40" height="41" viewBox="0 0 40 41" fill="none" xmlns="http://www.w3.org/2000/svg">
<g clip-path="url(#clip0_2_435)">
<path fill-rule="evenodd" clip-rule="evenodd" d="M0.941895 20.7225C0.941895 30.6658 7.98302 38.9342 17.1919 40.6108V26.1658H12.3169V20.6108H17.1919V16.1658C17.1919 11.1658 20.333 8.38917 24.7758 8.38917C26.183 8.38917 27.7008 8.61084 29.108 8.83251V13.9442H26.6169C24.233 13.9442 23.6919 15.1658 23.6919 16.7225V20.6108H28.8919L28.0258 26.1658H23.6919V40.6108C32.9008 38.9342 39.9419 30.6675 39.9419 20.7225C39.9419 9.66084 31.1669 0.61084 20.4419 0.61084C9.7169 0.61084 0.941895 9.66084 0.941895 20.7225Z" fill="white"/>
</g>
<defs>
<clipPath id="clip0_2_435">
<rect width="39" height="40" fill="white" transform="translate(0.941895 0.61084)"/>
</clipPath>
</defs>
</svg>
