<svg width="1927" height="146" viewBox="0 0 1927 146" fill="none" xmlns="http://www.w3.org/2000/svg">
<g clip-path="url(#clip0_64_77)">
<rect width="1927" height="146" fill="white"/>
<g clip-path="url(#clip1_64_77)">
<path d="M-32.4062 38.7578L51.0833 41.1533C134.609 44.1258 301.534 48.0515 467.573 37.986C633.558 27.0552 798.658 2.13331 965.61 6.49166C1132.6 11.427 1301.53 47.0849 1468.52 52.0202C1635.47 56.3785 1800.57 31.4566 1883.05 17.986L1965.58 5.09235L1974.33 143.561L1891.33 148.81C1808.32 154.059 1642.31 164.557 1476.3 175.055C1310.29 185.553 1144.27 196.051 978.261 206.549C812.249 217.047 646.236 227.546 480.224 238.044C314.212 248.542 148.2 259.04 65.1937 264.289L-17.8124 269.538L-32.4062 38.7578Z" fill="#D63341"/>
</g>
<rect x="-0.0576172" y="133.611" width="1920" height="75" fill="#D63341"/>
</g>
<defs>
<clipPath id="clip0_64_77">
<rect width="1927" height="146" fill="white"/>
</clipPath>
<clipPath id="clip1_64_77">
<rect width="1996.13" height="462.482" fill="white" transform="translate(-47 -192.022) rotate(-3.6184)"/>
</clipPath>
</defs>
</svg>
