<svg width="44" height="43" viewBox="0 0 44 43" fill="none" xmlns="http://www.w3.org/2000/svg">
<path fill-rule="evenodd" clip-rule="evenodd" d="M14.3165 2.47634C16.4181 2.38184 17.0882 2.36084 22.4417 2.36084C27.7952 2.36084 28.4653 2.38359 30.5652 2.47634C32.665 2.56909 34.0983 2.89634 35.3525 3.37059C36.6658 3.85534 37.8572 4.61309 38.8426 5.59309C39.846 6.55384 40.62 7.71584 41.1145 9.00034C41.6018 10.2253 41.9351 11.6253 42.0318 13.6728C42.1286 15.7291 42.1501 16.3836 42.1501 21.6108C42.1501 26.8398 42.1268 27.4943 42.0318 29.5471C41.9369 31.5946 41.6018 32.9946 41.1145 34.2196C40.62 35.5043 39.8447 36.6682 38.8426 37.6303C37.8572 38.6103 36.6658 39.3663 35.3525 39.8493C34.0983 40.3253 32.665 40.6508 30.5687 40.7453C28.4653 40.8398 27.7952 40.8608 22.4417 40.8608C17.0882 40.8608 16.4181 40.8381 14.3165 40.7453C12.2203 40.6526 10.7869 40.3253 9.53277 39.8493C8.21755 39.3663 7.02591 38.609 6.04082 37.6303C5.03816 36.669 4.26225 35.5056 3.76719 34.2213C3.28165 32.9963 2.9484 31.5963 2.85165 29.5488C2.7549 27.4926 2.7334 26.8381 2.7334 21.6108C2.7334 16.3818 2.75669 15.7273 2.85165 13.6763C2.94661 11.6253 3.28165 10.2253 3.76719 9.00034C4.26299 7.71598 5.03949 6.55264 6.04261 5.59134C7.0263 4.61222 8.21674 3.85437 9.53098 3.37059C10.7851 2.89634 12.2185 2.57084 14.3147 2.47634H14.3165ZM30.4057 5.94134C28.3274 5.84859 27.7039 5.82934 22.4417 5.82934C17.1796 5.82934 16.5561 5.84859 14.4778 5.94134C12.5553 6.02709 11.5126 6.34034 10.8174 6.60459C9.89827 6.95459 9.24073 7.36934 8.55094 8.04309C7.89706 8.66443 7.39385 9.42083 7.07819 10.2568C6.80765 10.9358 6.48694 11.9543 6.39915 13.8321C6.30419 15.8621 6.28448 16.4711 6.28448 21.6108C6.28448 26.7506 6.30419 27.3596 6.39915 29.3896C6.48694 31.2673 6.80765 32.2858 7.07819 32.9648C7.39352 33.7996 7.89698 34.5573 8.55094 35.1786C9.18698 35.8173 9.96277 36.3091 10.8174 36.6171C11.5126 36.8813 12.5553 37.1946 14.4778 37.2803C16.5561 37.3731 17.1778 37.3923 22.4417 37.3923C27.7057 37.3923 28.3274 37.3731 30.4057 37.2803C32.3281 37.1946 33.3709 36.8813 34.0661 36.6171C34.9852 36.2671 35.6427 35.8523 36.3325 35.1786C36.9865 34.5573 37.4899 33.7996 37.8053 32.9648C38.0758 32.2858 38.3965 31.2673 38.4843 29.3896C38.5793 27.3596 38.599 26.7506 38.599 21.6108C38.599 16.4711 38.5793 15.8621 38.4843 13.8321C38.3965 11.9543 38.0758 10.9358 37.8053 10.2568C37.4469 9.35909 37.0223 8.71684 36.3325 8.04309C35.6964 7.40446 34.922 6.91296 34.0661 6.60459C33.3709 6.34034 32.3281 6.02709 30.4057 5.94134ZM19.9244 27.5451C21.3303 28.1167 22.8957 28.1938 24.3533 27.7634C25.8109 27.3329 27.0703 26.4214 27.9164 25.1848C28.7624 23.9481 29.1427 22.4629 28.9921 20.9828C28.8416 19.5027 28.1697 18.1195 27.0911 17.0696C26.4035 16.3984 25.5722 15.8845 24.6568 15.5648C23.7415 15.2452 22.765 15.1277 21.7976 15.2209C20.8302 15.3141 19.896 15.6157 19.0623 16.1038C18.2285 16.592 17.516 17.2546 16.9759 18.0441C16.4358 18.8335 16.0817 19.7301 15.9389 20.6693C15.7962 21.6084 15.8684 22.5669 16.1504 23.4755C16.4324 24.3841 16.9171 25.2204 17.5697 25.9241C18.2223 26.6278 19.0265 27.1814 19.9244 27.5451ZM15.2786 14.6143C16.2193 13.6955 17.3361 12.9667 18.5651 12.4695C19.7941 11.9722 21.1114 11.7163 22.4417 11.7163C23.772 11.7163 25.0893 11.9722 26.3184 12.4695C27.5474 12.9667 28.6641 13.6955 29.6048 14.6143C30.5455 15.5331 31.2917 16.6239 31.8008 17.8244C32.3098 19.0248 32.5719 20.3115 32.5719 21.6108C32.5719 22.9102 32.3098 24.1969 31.8008 25.3973C31.2917 26.5978 30.5455 27.6885 29.6048 28.6073C27.705 30.4629 25.1284 31.5054 22.4417 31.5054C19.7551 31.5054 17.1784 30.4629 15.2786 28.6073C13.3789 26.7518 12.3116 24.235 12.3116 21.6108C12.3116 18.9866 13.3789 16.4699 15.2786 14.6143ZM34.8186 13.1898C35.0517 12.9751 35.2383 12.7168 35.3674 12.4303C35.4964 12.1438 35.5653 11.8349 35.57 11.522C35.5747 11.209 35.515 10.8983 35.3946 10.6083C35.2741 10.3182 35.0953 10.0547 34.8687 9.83341C34.6421 9.61208 34.3723 9.43742 34.0754 9.31975C33.7784 9.20208 33.4603 9.1438 33.1399 9.14836C32.8195 9.15292 32.5033 9.22023 32.2099 9.34631C31.9166 9.47238 31.6522 9.65466 31.4323 9.88234C31.0047 10.3251 30.7705 10.9133 30.7796 11.522C30.7887 12.1306 31.0403 12.7119 31.481 13.1423C31.9217 13.5728 32.5167 13.8185 33.1399 13.8274C33.7631 13.8362 34.3652 13.6075 34.8186 13.1898Z" fill="white"/>
</svg>
