<svg width="34" height="34" viewBox="0 0 34 34" fill="none" xmlns="http://www.w3.org/2000/svg">
<path d="M26.5167 7.21082C27.6107 7.21082 28.6599 7.64541 29.4335 8.419C30.2071 9.19259 30.6417 10.2418 30.6417 11.3358V24.5358C30.6417 25.6298 30.2071 26.679 29.4335 27.4526C28.6599 28.2262 27.6107 28.6608 26.5167 28.6608H8.3667C7.27268 28.6608 6.22347 28.2262 5.44988 27.4526C4.6763 26.679 4.2417 25.6298 4.2417 24.5358V11.3358C4.2417 10.2418 4.6763 9.19259 5.44988 8.419C6.22347 7.64541 7.27268 7.21082 8.3667 7.21082H26.5167ZM28.9917 13.7465L17.8608 20.297C17.7556 20.3588 17.6379 20.3964 17.5164 20.4073C17.3948 20.4181 17.2724 20.4018 17.1579 20.3597L17.0226 20.297L5.8917 13.7498V24.5358C5.8917 25.1922 6.15246 25.8218 6.61661 26.2859C7.08076 26.7501 7.71029 27.0108 8.3667 27.0108H26.5167C27.1731 27.0108 27.8026 26.7501 28.2668 26.2859C28.7309 25.8218 28.9917 25.1922 28.9917 24.5358V13.7465ZM26.5167 8.86082H8.3667C7.71029 8.86082 7.08076 9.12157 6.61661 9.58573C6.15246 10.0499 5.8917 10.6794 5.8917 11.3358V11.8341L17.4417 18.6288L28.9917 11.8308V11.3358C28.9917 10.6794 28.7309 10.0499 28.2668 9.58573C27.8026 9.12157 27.1731 8.86082 26.5167 8.86082Z" fill="white" stroke="white"/>
</svg>
