<svg width="33" height="27" viewBox="0 0 33 27" fill="none" xmlns="http://www.w3.org/2000/svg">
<path d="M25.575 2.6001C26.669 2.6001 27.7182 3.03469 28.4918 3.80828C29.2654 4.58187 29.7 5.63108 29.7 6.7251V19.9251C29.7 21.0191 29.2654 22.0683 28.4918 22.8419C27.7182 23.6155 26.669 24.0501 25.575 24.0501H7.42499C6.33097 24.0501 5.28176 23.6155 4.50817 22.8419C3.73458 22.0683 3.29999 21.0191 3.29999 19.9251V6.7251C3.29999 5.63108 3.73458 4.58187 4.50817 3.80828C5.28176 3.03469 6.33097 2.6001 7.42499 2.6001H25.575ZM28.05 9.13575L16.9191 15.6862C16.8139 15.748 16.6962 15.7857 16.5747 15.7965C16.4531 15.8074 16.3307 15.7911 16.2162 15.7489L16.0809 15.6862L4.94999 9.13905V19.9251C4.94999 20.5815 5.21075 21.211 5.6749 21.6752C6.13905 22.1393 6.76858 22.4001 7.42499 22.4001H25.575C26.2314 22.4001 26.8609 22.1393 27.3251 21.6752C27.7892 21.211 28.05 20.5815 28.05 19.9251V9.13575ZM25.575 4.2501H7.42499C6.76858 4.2501 6.13905 4.51086 5.6749 4.97501C5.21075 5.43916 4.94999 6.06869 4.94999 6.7251V7.2234L16.5 14.0181L28.05 7.2201V6.7251C28.05 6.06869 27.7892 5.43916 27.3251 4.97501C26.8609 4.51086 26.2314 4.2501 25.575 4.2501V4.2501Z" fill="white" stroke="white"/>
</svg>
